<svg width="394" height="438" viewBox="0 0 394 438" fill="none" xmlns="http://www.w3.org/2000/svg">
<path d="M66.5898 377.649L66.584 377.614C63.7065 357.539 55.8918 342.71 46.4199 325.492L41.0322 315.7L30.834 296.704L24.707 284.365C16.0827 266.997 11.0897 252.125 6.87891 233.165C4.39647 221.987 2.81426 210.844 2.38086 199.391C1.83429 184.945 2.23025 171.435 4.42285 157.188C5.94699 147.284 8.60185 137.824 11.7842 128.188L11.8936 127.856L11.6201 127.64C9.1928 125.71 6.78984 123.764 5.02148 121.184C-0.941559 112.481 -0.933522 101.888 4.61035 92.8574C6.68689 90.1115 8.76099 87.6218 11.5713 85.7051C18.4337 81.0246 26.9912 79.8368 35.0957 82.2988L35.4307 82.4004L35.6406 82.1211C39.9452 76.4005 44.4091 70.8995 49.6055 65.9629L60.4092 55.7002C66.4329 50.5724 72.5552 45.8243 79.3447 41.7529C85.9197 37.8102 92.5961 34.6202 99.4453 31.1172C105.693 27.922 111.841 25.2381 118.374 22.6445C127.129 19.1687 135.893 16.5364 145.071 14.3223C152.806 12.4564 160.249 10.911 168.149 10.0479C176.932 9.08832 185.466 8.57119 194.343 8.57617C204.561 8.76621 214.424 9.48624 224.568 10.6045C231.679 11.3884 238.494 12.4119 245.565 13.918L245.921 13.9932L246.103 13.6797C250.321 6.40727 257.367 1.56955 265.638 0.661133C277.896 -0.685327 289.118 6.5313 292.936 18.2383C294.392 22.7041 294.384 27.4388 293.29 32.165L293.212 32.5029L293.502 32.6943C312.111 45.0167 326.923 58.9123 337.661 78.6934C347.393 96.6211 351.611 113.8 352.917 134.189L352.946 134.638L353.394 134.657C358.448 134.883 362.06 139.148 361.449 144.198L361.448 144.204C361.063 147.755 358.723 150.716 355.281 151.54L355.251 151.547L355.222 151.558C355.171 151.576 355.062 151.618 354.964 151.654C354.915 151.672 354.869 151.689 354.835 151.701C354.818 151.707 354.805 151.712 354.797 151.715C354.793 151.716 354.791 151.717 354.791 151.717C354.791 151.717 354.794 151.716 354.798 151.715C354.8 151.714 354.804 151.713 354.809 151.712L354.836 151.705C354.632 151.75 354.535 151.897 354.505 151.952C354.47 152.014 354.457 152.069 354.452 152.091C354.442 152.139 354.441 152.178 354.44 152.191C354.44 152.224 354.441 152.255 354.442 152.271C354.445 152.309 354.45 152.354 354.455 152.393C354.467 152.488 354.476 152.555 354.484 152.625L355.304 159.75C355.944 165.318 357.245 170.633 359.45 175.772L361.851 181.367L361.857 181.382L361.864 181.396L371.927 201.299L371.931 201.307L379.209 215.061L379.21 215.062L387.943 231.42C390.095 235.45 391.785 239.464 392.787 243.836C394.248 250.21 391.99 256.353 386.779 260.2L378.469 265.428C375.764 267.129 372.192 269.148 369.793 271.675C368.585 272.947 367.641 274.381 367.256 276.007C366.868 277.645 367.058 279.43 368.035 281.372C368.691 282.676 369.503 283.863 370.355 285.021C371.218 286.192 372.1 287.304 372.953 288.522C374.639 290.93 376.124 293.633 376.653 297.392C376.916 299.253 376.458 301.17 375.636 303.066C374.814 304.963 373.645 306.798 372.529 308.491C371.147 310.589 370.342 313.139 371.332 315.679L373.481 321.19C375.039 325.185 375.253 328.701 374.363 331.942C373.471 335.192 371.454 338.216 368.464 341.196L364.486 345.16C361.619 348.018 360.749 351.79 360.914 355.658C361.079 359.521 362.278 363.533 363.607 366.954C367.094 375.927 367.749 384.727 362.761 393.116C359.858 397.999 355.956 401.91 351.271 405.154C342.965 410.905 335.177 412.617 325.08 412.811L315.356 412.996L314.581 412.975L313.741 412.952C313.55 412.947 313.399 413.036 313.305 413.14C313.223 413.229 313.183 413.327 313.163 413.388C313.122 413.51 313.11 413.644 313.104 413.736C313.097 413.837 313.096 413.942 313.095 414.021C313.094 414.062 313.094 414.096 313.093 414.124C313.092 414.138 313.092 414.148 313.092 414.156C313.091 414.163 313.091 414.166 313.091 414.166C312.602 418.283 311.501 422.043 309.286 425.514C304.169 433.53 294.948 438.21 285.438 437.358C272.338 436.185 262.281 425.509 261.939 412.404C261.832 408.284 262.995 404.504 264.675 400.74L265.017 399.975C265.179 399.61 264.918 399.341 264.848 399.276C264.75 399.187 264.628 399.12 264.543 399.075C264.451 399.027 264.346 398.98 264.269 398.943C264.18 398.902 264.126 398.875 264.096 398.856V398.855L215.612 369.211C199.004 359.056 183.041 348.049 167.399 336.523L167.256 336.417L167.076 336.427C166.816 336.44 166.609 336.471 166.41 336.538L166.107 336.641L166.072 336.959C164.587 350.716 162.712 364.097 159.959 377.787C158.09 387.078 155.036 398.266 150.258 405.914C148.288 409.068 145.729 411.596 142.901 412.795C140.103 413.981 137.005 413.884 133.847 411.73C131.248 409.958 129.286 407.52 127.712 404.623C124.002 397.796 121.311 390.606 119.25 383.017C115.42 368.912 112.816 354.729 110.854 340.24L108.365 321.939L108.301 321.464L107.823 321.509C103.493 321.918 99.3372 321.204 95.2861 319.355L94.7773 319.123L94.6035 319.654L89.2666 335.901L89.2656 335.904L75.4863 378.666L75.4834 378.676L75.4805 378.687C75.405 378.961 75.2569 379.119 75.0352 379.226C74.7881 379.344 74.4323 379.403 73.958 379.402C72.9896 379.4 71.8193 379.161 70.5625 379.004C69.9765 378.931 69.3966 378.893 68.8867 378.853C68.365 378.811 67.9193 378.765 67.5518 378.679C67.1816 378.592 66.9492 378.477 66.8096 378.339C66.6868 378.217 66.5899 378.032 66.5898 377.686V377.649Z" stroke="white"/>
<mask id="path-2-inside-1_8464_31598" fill="white">
<path d="M105.54 63.0305C117.714 63.3017 129.293 60.8006 139.985 55.2619C153.518 48.2517 164.468 36.411 180.252 33.5194C187.81 32.1347 195.096 31.697 202.753 32.345C209.915 32.9511 216.84 33.2698 224.019 32.9214C230.348 32.188 236.333 30.82 242.335 28.6461C241.866 24.1973 242.458 19.8796 244.447 15.7223C233.433 13.3768 222.535 11.9658 211.247 11.1826C197.576 10.099 183.961 10.0512 170.351 11.6134C144.576 14.572 119.855 22.5286 96.8985 34.459C91.0426 37.5023 85.2944 40.2828 79.677 43.7257C71.2382 48.8977 63.6717 54.9903 56.4695 61.7416C53.1032 64.8581 50.1147 67.9373 47.0686 71.3453C43.7113 74.9958 40.6135 78.676 37.7188 82.6383C42.1496 84.6975 45.6766 87.7289 48.5015 91.815L61.1758 80.0644C65.1525 76.2466 69.3219 72.9642 74.0057 70.0709C83.2908 64.3388 94.439 62.7831 105.54 63.0305ZM73.6705 73.0743C69.863 75.5107 66.5399 78.2553 63.21 81.3422L49.7798 93.7967C52.8891 99.9126 53.9237 106.733 52.0944 113.401L139.97 147.356C149.009 128.6 168.355 116.617 189.231 117.162C197.266 117.371 204.866 119.433 211.941 122.949L230.388 90.5736L254.661 47.9377C248.472 44.0474 244.184 38.1614 242.677 30.9987C236.389 33.103 230.138 34.571 223.556 35.2392C217.735 35.4591 212.198 35.2701 206.394 34.8814C201.283 34.5515 196.392 34.296 191.276 34.5129C182.551 34.8829 172.914 36.9724 165.629 41.7202L153.379 49.7034L147.786 53.4051C138.593 59.4894 128.227 63.4287 117.204 64.7597C113.261 65.2358 109.567 65.276 105.641 65.2516C93.9706 65.179 83.5186 66.5192 73.6705 73.0743ZM346.818 136.625C348.238 135.401 349.372 134.828 351.087 134.389C350.267 121.506 348.266 109.103 343.803 96.8356C340.601 88.0363 336.521 79.8786 331.485 71.9759C324.982 61.9842 317.044 53.2292 307.861 45.6376L293.018 34.7942C290.705 40.8375 286.598 45.49 281.094 48.6684C284.753 58.1072 290.352 66.5563 298.023 73.1244L310.552 82.4052C317.559 87.2344 323.215 93.3088 327.29 100.792L333.912 114.946L339.237 126.277C341.309 130.094 343.786 133.534 346.818 136.625ZM239.168 159.192L279.066 153.509L276.286 123.836L269.708 51.7155C265.15 51.9413 260.756 51.0802 256.615 48.9962L245.746 68.2771L225.846 103.196L213.98 124.123C227.162 132.073 236.066 143.967 239.168 159.192ZM331.776 116.063L326.873 105.049C325.063 100.985 322.663 97.3473 319.813 93.917C312.572 85.2022 303.667 81.4249 295.686 74.1948C288.197 67.4101 282.531 59.1408 279.008 49.6014L271.912 51.6186L281.29 153.082L303.986 149.823L343.964 144.02C343.864 141.965 344.388 140.134 345.293 138.481C342.792 135.922 340.722 133.261 338.819 130.272C336.103 125.657 333.957 120.963 331.776 116.063ZM155.246 281.97L169.447 277.243L171.68 241.804L173.2 220.198C167.979 218.779 163.513 216.588 159.16 213.856C137.486 200.254 128.932 173.099 139.068 149.465L51.391 115.602C49.7167 119.981 47.0361 123.524 43.7625 126.515L78.1085 170.421C83.3142 166.376 90.116 166.112 95.4488 169.396C100.596 172.566 103.461 178.548 102.487 184.714C101.652 190.677 97.509 195.378 91.5681 197.011L104.263 269.936C117.118 269.071 128.699 277.426 131.631 289.88L155.246 281.97ZM60.4073 267.225C66.5855 274.286 73.949 280.177 82.1059 284.812C86.3689 276.471 93.0552 271.731 102.053 270.129L89.3812 197.456C84.1801 197.972 79.3188 196.179 76.0404 192.327C71.0379 186.45 71.1651 177.776 76.3869 171.946L41.9277 127.878L38.978 129.644C35.1621 131.928 30.9187 132.86 26.3837 132.62L24.8651 144.265C24.2784 148.764 24.1021 153.058 24.0796 157.605C24.5661 167.577 28.0284 176.67 33.3069 185.043L39.5599 194.963C43.2259 200.778 45.1825 207.204 46.1528 214.026L47.5228 228.615C48.9187 243.479 50.0706 255.41 60.4073 267.225ZM93.0134 318.752C81.6483 312.378 76.6915 299.055 81.0949 287.106C69.7358 280.087 59.9026 272.246 52.946 260.812C47.2492 250.42 46.2801 240.325 45.2256 228.849L43.9491 214.956C43.0408 207.694 40.7624 201.022 36.85 194.858L30.1807 184.351C24.7541 175.802 21.2742 164.458 21.7841 154.242C21.9846 146.914 23.038 139.836 24.1061 132.62C20.2291 132.176 16.6954 131.147 13.3572 129.367C7.82274 145.355 4.75669 161.739 4.1563 178.584L3.89273 193.263C4.20151 206.948 5.83415 220.274 8.81854 233.627C12.1885 248.706 17.4074 265.456 24.2198 279.229L32.3725 295.712L39.9237 309.981L52.5984 332.912L60.5502 349.599C64.4768 358.512 66.9798 367.787 68.331 377.353C70.3221 377.211 72.0468 377.456 73.8872 377.956L88.9033 331.15L93.0134 318.752ZM313.512 198.416L346.543 149.809C345.486 148.663 344.92 147.727 344.377 146.31L281.493 155.38L286.641 212.267C292.048 211.877 297.189 213.261 301.894 215.718L313.512 198.416ZM261.688 336.249C269.102 343.199 272.625 353.837 273.87 363.682L274.856 371.415C275.55 376.941 277.049 382.214 279.635 387.197C284.947 385.502 290.295 385.546 295.462 387.009L312.326 312.489L336.315 207.317L343.271 177.052L349.005 152.235C349.054 152.023 348.981 151.483 348.807 151.481L348.185 151.474L320.214 192.695L303.785 216.99C313.623 224.172 317.381 236.834 313.04 248.089C308.417 259.444 296.595 266.412 284.454 264.407C279.535 263.595 275.115 261.682 271.355 258.494L237.533 289.612C237.264 295.378 237.823 301.129 239.174 306.848C240.244 311.382 242.114 315.389 244.824 319.14C247.194 322.284 249.745 325.054 252.62 327.749L261.688 336.249ZM371.507 321.026L369.637 316.112C368.753 312.972 369.506 309.982 371.165 307.231L373.671 303.076C375.424 300.169 375.245 296.766 373.859 293.674C372.778 291.262 371.157 289.28 369.684 287.087L366.59 282.482C364.537 278.653 365.04 274.209 368.023 270.992C370.138 268.713 372.615 266.878 375.311 265.248L383.946 260.025C385.975 258.798 387.752 257.166 389.153 255.247C391.023 252.687 391.681 249.486 391.383 246.323C391.093 243.25 390.38 240.266 388.974 237.547L383.288 226.549L371.964 205.058L360.796 183.169C357.794 177.286 355.533 171.334 354.278 164.807L352.673 152.51C352.445 152.227 351.482 152.163 351.303 152.457L348.519 164.579L343.675 185.392L339.092 205.486L331.903 236.998L317.682 299.142L297.587 387.79C307.085 392.035 313.291 400.612 313.653 411.242L326.373 411.013C332.792 410.897 338.88 409.639 344.67 406.873C351.316 403.75 356.893 398.991 360.804 392.791C364.344 387.178 365.389 380.758 363.995 374.291L361.285 365.736C360.238 362.433 359.192 359.253 359.005 355.782C358.632 348.834 362.317 344.212 367.318 339.79C370.389 337.075 372.449 333.47 373.027 329.375C373.439 326.46 372.569 323.816 371.507 321.026ZM226.972 248.415C229.254 250.922 231.257 253.326 232.959 256.06L253.719 249.052L263.044 245.944C258.839 230.064 268.421 215.325 284.395 212.495L279.263 155.731L239.533 161.422C241.112 170.342 240.168 179.288 237.055 187.751C234.333 194.977 230.185 201.262 224.787 206.756C220.131 211.091 215.068 214.656 209.272 217.379C210.543 224.895 213.713 233.851 218.848 239.491L226.972 248.415ZM210.845 263.444L230.664 256.742C229.207 254.52 227.595 252.477 225.762 250.522L218.692 242.982C212.166 235.694 208.974 227.996 207.064 218.321C196.425 222.366 186.693 223.308 175.357 220.825L174.25 237.841L171.83 276.429L185.6 271.884L210.845 263.444ZM237.707 286.381L269.723 256.978C267.133 254.458 265.185 251.467 263.811 248.102L234.092 258.048C236.811 263.526 238.545 269.448 238.245 275.512L237.707 286.381ZM269.78 392.866L238.633 355.083L217.25 329.214C210.803 333.984 202.056 332.876 196.935 327.181C191.719 321.38 191.774 312.794 196.958 306.938C202.013 301.227 210.788 300.145 217.385 304.967L235.26 288.679L235.921 276.551C236.001 270.335 234.866 264.202 231.798 258.789L203.873 268.159L171.615 278.966L169.421 307.064L166.899 334.01C184.716 347.182 203.058 359.398 221.92 370.994L246.219 385.933L265.727 397.761C266.869 395.965 268.286 394.447 269.78 392.866ZM138.165 312.776L164.839 332.548L169.244 279.752L132.074 292.187C132.811 297.245 132.106 302.127 130.077 306.761L138.165 312.776ZM272.548 371.81L271.021 360.612C270.057 353.546 266.012 343.57 260.883 338.709L252.859 331.105L246.305 324.577C237.991 315.703 234.945 304.073 235.15 291.803L219.211 306.457C224.757 313.088 224.882 321.414 219.075 327.708L250.962 366.314L271.622 391.434C273.356 390.092 275.106 389.017 277.346 387.986C274.786 382.921 273.337 377.595 272.548 371.81ZM135.101 410.482C138.177 412.418 141.719 412.092 144.413 409.9C149.706 405.592 152.83 397.045 154.936 390.422C156.782 384.129 158.387 378.038 159.324 371.496L164.534 335.144L129.045 308.819C124.88 315.742 118.026 320.494 110.187 321.808L112.367 338.07C114.133 351.532 116.564 364.646 119.689 377.853C121.344 384.066 123.113 389.953 125.537 395.849C127.576 400.807 130.701 407.714 135.101 410.482Z"/>
</mask>
<path d="M160.449 377.886L160.939 377.985V377.985L160.449 377.886ZM150.682 406.179L150.258 405.914V405.914L150.682 406.179ZM133.565 412.143L133.283 412.556H133.283L133.565 412.143ZM127.273 404.862L127.712 404.624V404.624L127.273 404.862ZM118.768 383.148L119.25 383.017V383.017L118.768 383.148ZM110.358 340.308L110.854 340.241L110.854 340.24L110.358 340.308ZM107.87 322.007L108.366 321.94L108.301 321.464L107.823 321.509L107.87 322.007ZM95.0781 319.81L95.2857 319.355L94.7774 319.123L94.6031 319.654L95.0781 319.81ZM89.7413 336.058L89.2662 335.902L89.2654 335.904L89.7413 336.058ZM45.9815 325.733L45.5434 325.974H45.5434L45.9815 325.733ZM40.5947 315.942L40.1542 316.178L40.1566 316.183L40.5947 315.942ZM30.3933 296.941L29.9455 297.163L29.949 297.17L29.9528 297.177L30.3933 296.941ZM24.2595 284.588L24.7073 284.365V284.365L24.2595 284.588ZM6.39126 233.273L5.90315 233.382V233.382L6.39126 233.273ZM1.88146 199.409L1.38182 199.428V199.428L1.88146 199.409ZM3.92827 157.111L3.43408 157.035V157.035L3.92827 157.111ZM11.3091 128.031L11.7839 128.188L11.8932 127.856L11.6203 127.639L11.3091 128.031ZM4.60944 121.466L5.02191 121.183L5.02191 121.183L4.60944 121.466ZM4.19857 92.5738L3.7997 92.2722L3.78524 92.2914L3.77268 92.3118L4.19857 92.5738ZM11.2893 85.2921L11.0076 84.879L11.0076 84.879L11.2893 85.2921ZM35.2413 81.8201L35.096 82.2985L35.4306 82.4001L35.6408 82.1207L35.2413 81.8201ZM49.2611 65.6006L48.9167 65.2381V65.2381L49.2611 65.6006ZM60.0646 55.3373L59.7405 54.9566L59.7301 54.9654L59.7202 54.9748L60.0646 55.3373ZM79.0876 41.3244L78.8305 40.8956V40.8956L79.0876 41.3244ZM99.2176 30.6719L99.4453 31.117V31.117L99.2176 30.6719ZM118.19 22.1802L118.005 21.7155V21.7155L118.19 22.1802ZM144.954 13.8363L144.837 13.3502V13.3502L144.954 13.8363ZM168.096 9.55076L168.041 9.05372V9.05372L168.096 9.55076ZM194.351 8.07636L194.36 7.57636L194.351 7.57636L194.351 8.07636ZM224.623 10.1073L224.678 9.61032V9.61032L224.623 10.1073ZM245.67 13.4285L245.566 13.9175L245.921 13.9931L246.103 13.6794L245.67 13.4285ZM265.583 0.163831L265.528 -0.33318V-0.33318L265.583 0.163831ZM293.411 18.0834L292.936 18.2384V18.2384L293.411 18.0834ZM293.778 32.2774L293.29 32.1646L293.212 32.5027L293.502 32.6942L293.778 32.2774ZM338.101 78.4552L338.54 78.2166V78.2166L338.101 78.4552ZM353.416 134.158L352.917 134.19L352.946 134.637L353.394 134.657L353.416 134.158ZM361.946 144.258L361.449 144.198L361.449 144.204L361.946 144.258ZM355.397 152.026L355.281 151.54L355.251 151.547L355.222 151.558L355.397 152.026ZM354.943 152.194L355.049 152.682L355.05 152.682L354.943 152.194ZM354.981 152.568L354.485 152.625L354.485 152.625L354.981 152.568ZM355.801 159.693L356.297 159.636V159.636L355.801 159.693ZM359.91 175.575L360.37 175.378V175.378L359.91 175.575ZM362.31 181.17L361.851 181.367L361.857 181.382L361.864 181.396L362.31 181.17ZM372.373 201.073L371.927 201.299L371.931 201.307L372.373 201.073ZM379.651 214.826L379.209 215.06L379.21 215.062L379.651 214.826ZM388.384 231.184L387.943 231.42V231.42L388.384 231.184ZM393.274 243.724L393.762 243.613V243.613L393.274 243.724ZM387.065 260.611L387.331 261.035L387.347 261.025L387.362 261.014L387.065 260.611ZM378.735 265.851L378.469 265.428V265.428L378.735 265.851ZM368.482 281.147L368.035 281.372V281.372L368.482 281.147ZM377.148 297.322L377.643 297.252V297.252L377.148 297.322ZM372.947 308.766L373.365 309.041V309.041L372.947 308.766ZM371.798 315.497L372.263 315.315V315.315L371.798 315.497ZM373.947 321.008L374.413 320.827V320.827L373.947 321.008ZM368.817 341.55L368.464 341.196L368.464 341.196L368.817 341.55ZM364.839 345.514L365.192 345.868V345.868L364.839 345.514ZM364.073 366.772L364.539 366.591V366.591L364.073 366.772ZM363.191 393.371L363.62 393.627V393.627L363.191 393.371ZM351.556 405.565L351.84 405.976V405.976L351.556 405.565ZM325.09 413.31L325.08 412.81V412.81L325.09 413.31ZM315.352 413.497L315.338 413.997L315.35 413.997L315.362 413.997L315.352 413.497ZM314.567 413.475L314.581 412.975H314.581L314.567 413.475ZM313.727 413.452L313.714 413.952H313.714L313.727 413.452ZM313.588 414.225L314.084 414.284V414.283L313.588 414.225ZM309.707 425.782L309.286 425.513V425.513L309.707 425.782ZM285.394 437.857L285.349 438.355V438.355L285.394 437.857ZM261.439 412.417L261.939 412.404V412.404L261.439 412.417ZM264.219 400.536L264.675 400.74L264.675 400.74L264.219 400.536ZM264.56 399.771L264.103 399.567L264.103 399.567L264.56 399.771ZM263.835 399.283L263.574 399.709V399.709L263.835 399.283ZM215.352 369.637L215.091 370.064V370.064L215.352 369.637ZM167.103 336.926L167.4 336.523L167.255 336.417L167.077 336.426L167.103 336.926ZM166.57 337.012L166.41 336.538L166.107 336.641L166.073 336.959L166.57 337.012ZM160.449 377.886L159.959 377.787C158.09 387.079 155.036 398.266 150.258 405.914L150.682 406.179L151.106 406.444C155.986 398.633 159.067 387.293 160.939 377.985L160.449 377.886ZM150.682 406.179L150.258 405.914C148.288 409.068 145.729 411.596 142.902 412.795C140.103 413.981 137.006 413.884 133.847 411.73L133.565 412.143L133.283 412.556C136.728 414.905 140.185 415.033 143.292 413.715C146.371 412.41 149.069 409.705 151.106 406.444L150.682 406.179ZM133.565 412.143L133.847 411.73C131.248 409.958 129.286 407.52 127.712 404.624L127.273 404.862L126.833 405.101C128.461 408.097 130.52 410.672 133.283 412.556L133.565 412.143ZM127.273 404.862L127.712 404.624C124.002 397.797 121.311 390.606 119.25 383.017L118.768 383.148L118.285 383.279C120.362 390.927 123.079 398.192 126.833 405.101L127.273 404.862ZM118.768 383.148L119.25 383.017C115.421 368.913 112.816 354.73 110.854 340.241L110.358 340.308L109.863 340.375C111.829 354.894 114.441 369.122 118.285 383.279L118.768 383.148ZM110.358 340.308L110.854 340.24L108.366 321.94L107.87 322.007L107.375 322.074L109.863 340.375L110.358 340.308ZM107.87 322.007L107.823 321.509C103.493 321.918 99.3369 321.204 95.2857 319.355L95.0781 319.81L94.8705 320.265C99.077 322.185 103.408 322.931 107.917 322.505L107.87 322.007ZM95.0781 319.81L94.6031 319.654L89.2662 335.902L89.7413 336.058L90.2163 336.214L95.5531 319.966L95.0781 319.81ZM89.7413 336.058L89.2654 335.904L75.4866 378.666L75.9625 378.819L76.4384 378.973L90.2172 336.211L89.7413 336.058ZM66.0894 377.685L66.5844 377.614C63.7069 357.538 55.8915 342.71 46.4196 325.492L45.9815 325.733L45.5434 325.974C55.0146 343.191 62.7453 357.878 65.5945 377.756L66.0894 377.685ZM45.9815 325.733L46.4196 325.492L41.0328 315.701L40.5947 315.942L40.1566 316.183L45.5434 325.974L45.9815 325.733ZM40.5947 315.942L41.0353 315.705L30.8339 296.704L30.3933 296.941L29.9528 297.177L40.1542 316.178L40.5947 315.942ZM30.3933 296.941L30.8412 296.718L24.7073 284.365L24.2595 284.588L23.8116 284.81L29.9455 297.163L30.3933 296.941ZM24.2595 284.588L24.7073 284.365C16.0829 266.997 11.0902 252.125 6.87937 233.165L6.39126 233.273L5.90315 233.382C10.1294 252.411 15.1472 267.361 23.8116 284.81L24.2595 284.588ZM6.39126 233.273L6.87937 233.165C4.39691 221.987 2.81449 210.844 2.3811 199.39L1.88146 199.409L1.38182 199.428C1.8178 210.951 3.40954 222.154 5.90315 233.382L6.39126 233.273ZM1.88146 199.409L2.3811 199.39C1.83453 184.945 2.22982 171.435 4.42245 157.187L3.92827 157.111L3.43408 157.035C1.2292 171.363 0.833586 184.939 1.38182 199.428L1.88146 199.409ZM3.92827 157.111L4.42245 157.187C5.94659 147.283 8.60148 137.824 11.7839 128.188L11.3091 128.031L10.8343 127.874C7.64338 137.536 4.97007 147.054 3.43408 157.035L3.92827 157.111ZM11.3091 128.031L11.6203 127.639C9.19293 125.709 6.79021 123.764 5.02191 121.183L4.60944 121.466L4.19697 121.748C6.06242 124.471 8.5834 126.502 10.9979 128.422L11.3091 128.031ZM4.60944 121.466L5.02191 121.183C-0.945992 112.473 -0.932948 101.871 4.62445 92.8357L4.19857 92.5738L3.77268 92.3118C-1.97921 101.663 -2.00737 112.693 4.19697 121.749L4.60944 121.466ZM4.19857 92.5738L4.59743 92.8753C6.67836 90.1225 8.75479 87.626 11.5711 85.7051L11.2893 85.2921L11.0076 84.879C8.04894 86.897 5.89136 89.5052 3.7997 92.2722L4.19857 92.5738ZM11.2893 85.2921L11.5711 85.7051C18.4336 81.0245 26.9914 79.8364 35.096 82.2985L35.2413 81.8201L35.3866 81.3416C27.0059 78.7957 18.132 80.0198 11.0076 84.879L11.2893 85.2921ZM35.2413 81.8201L35.6408 82.1207C39.9455 76.4001 44.409 70.8997 49.6055 65.9631L49.2611 65.6006L48.9167 65.2381C43.6609 70.2312 39.1586 75.7826 34.8418 81.5194L35.2413 81.8201ZM49.2611 65.6006L49.6055 65.9631L60.409 55.6998L60.0646 55.3373L59.7202 54.9748L48.9167 65.2381L49.2611 65.6006ZM60.0646 55.3373L60.3888 55.718C66.4192 50.5835 72.5474 45.8293 79.3447 41.7533L79.0876 41.3244L78.8305 40.8956C71.9672 45.0112 65.7921 49.8041 59.7405 54.9566L60.0646 55.3373ZM79.0876 41.3244L79.3447 41.7533C85.9198 37.8105 92.5961 34.6201 99.4453 31.117L99.2176 30.6719L98.99 30.2267C92.1717 33.7139 85.4438 36.9299 78.8305 40.8956L79.0876 41.3244ZM99.2176 30.6719L99.4453 31.117C105.693 27.9218 111.841 25.2386 118.374 22.6449L118.19 22.1802L118.005 21.7155C111.452 24.3172 105.273 27.0132 98.99 30.2267L99.2176 30.6719ZM118.19 22.1802L118.374 22.6449C127.129 19.169 135.893 16.5365 145.071 14.3224L144.954 13.8363L144.837 13.3502C135.623 15.5729 126.813 18.2186 118.005 21.7155L118.19 22.1802ZM144.954 13.8363L145.071 14.3224C152.806 12.4565 160.249 10.911 168.15 10.0478L168.096 9.55076L168.041 9.05372C160.08 9.9235 152.59 11.4798 144.837 13.3502L144.954 13.8363ZM168.096 9.55076L168.15 10.0478C176.936 9.08799 185.471 8.57105 194.351 8.57636L194.351 8.07636L194.351 7.57636C185.431 7.57103 176.859 8.0904 168.041 9.05372L168.096 9.55076ZM194.351 8.07636L194.342 8.57627C204.56 8.76628 214.424 9.48601 224.568 10.6043L224.623 10.1073L224.678 9.61032C214.509 8.48934 204.615 7.76712 194.36 7.57644L194.351 8.07636ZM224.623 10.1073L224.568 10.6043C231.679 11.3882 238.495 12.4114 245.566 13.9175L245.67 13.4285L245.774 12.9395C238.664 11.4251 231.815 10.3971 224.678 9.61032L224.623 10.1073ZM245.67 13.4285L246.103 13.6794C250.321 6.40693 257.367 1.56926 265.638 0.660841L265.583 0.163831L265.528 -0.33318C256.921 0.612224 249.605 5.64902 245.238 13.1776L245.67 13.4285ZM265.583 0.163831L265.638 0.660841C277.896 -0.685644 289.119 6.53126 292.936 18.2384L293.411 18.0834L293.887 17.9284C289.922 5.76911 278.255 -1.73114 265.528 -0.33318L265.583 0.163831ZM293.411 18.0834L292.936 18.2384C294.392 22.7042 294.384 27.4385 293.29 32.1646L293.778 32.2774L294.265 32.3901C295.391 27.5223 295.41 22.5991 293.887 17.9284L293.411 18.0834ZM293.778 32.2774L293.502 32.6942C312.111 45.0167 326.923 58.9124 337.661 78.6937L338.101 78.4552L338.54 78.2166C327.701 58.2511 312.755 44.244 294.054 31.8605L293.778 32.2774ZM338.101 78.4552L337.661 78.6937C347.394 96.6216 351.611 113.8 352.917 134.19L353.416 134.158L353.915 134.126C352.602 113.619 348.353 96.2936 338.54 78.2166L338.101 78.4552ZM353.416 134.158L353.394 134.657C358.448 134.884 362.06 139.148 361.449 144.198L361.946 144.258L362.442 144.318C363.123 138.692 359.077 133.911 353.439 133.658L353.416 134.158ZM361.946 144.258L361.449 144.204C361.063 147.755 358.723 150.716 355.281 151.54L355.397 152.026L355.514 152.512C359.416 151.579 362.017 148.231 362.443 144.312L361.946 144.258ZM355.397 152.026L355.222 151.558C355.171 151.577 355.062 151.618 354.964 151.654C354.915 151.672 354.869 151.689 354.835 151.701C354.818 151.708 354.805 151.712 354.797 151.715C354.792 151.717 354.791 151.717 354.791 151.717C354.791 151.717 354.794 151.716 354.798 151.715C354.8 151.714 354.804 151.713 354.808 151.712C354.812 151.711 354.822 151.708 354.836 151.705L354.943 152.194L355.05 152.682C355.073 152.677 355.091 152.671 355.093 152.671C355.099 152.669 355.104 152.667 355.108 152.666C355.115 152.663 355.122 152.661 355.129 152.659C355.142 152.654 355.159 152.648 355.177 152.641C355.214 152.628 355.262 152.61 355.311 152.592C355.411 152.555 355.522 152.514 355.573 152.494L355.397 152.026ZM354.943 152.194L354.836 151.705C354.631 151.75 354.535 151.897 354.504 151.952C354.47 152.014 354.457 152.069 354.452 152.091C354.442 152.139 354.441 152.179 354.44 152.192C354.44 152.225 354.442 152.255 354.443 152.271C354.446 152.309 354.451 152.353 354.455 152.392C354.467 152.488 354.477 152.554 354.485 152.625L354.981 152.568L355.478 152.511C355.471 152.449 355.455 152.33 355.448 152.272C355.444 152.234 355.441 152.21 355.44 152.198C355.439 152.189 355.441 152.199 355.44 152.218C355.44 152.224 355.439 152.258 355.43 152.303C355.425 152.323 355.413 152.376 355.379 152.437C355.349 152.491 355.253 152.637 355.049 152.682L354.943 152.194ZM354.981 152.568L354.485 152.625L355.304 159.75L355.801 159.693L356.297 159.636L355.478 152.511L354.981 152.568ZM355.801 159.693L355.304 159.75C355.944 165.318 357.246 170.633 359.451 175.773L359.91 175.575L360.37 175.378C358.208 170.34 356.928 165.121 356.297 159.636L355.801 159.693ZM359.91 175.575L359.451 175.773L361.851 181.367L362.31 181.17L362.77 180.973L360.37 175.378L359.91 175.575ZM362.31 181.17L361.864 181.396L371.927 201.299L372.373 201.073L372.819 200.848L362.757 180.945L362.31 181.17ZM372.373 201.073L371.931 201.307L379.209 215.06L379.651 214.826L380.093 214.593L372.815 200.839L372.373 201.073ZM379.651 214.826L379.21 215.062L387.943 231.42L388.384 231.184L388.825 230.949L380.092 214.591L379.651 214.826ZM388.384 231.184L387.943 231.42C390.094 235.449 391.785 239.464 392.787 243.836L393.274 243.724L393.762 243.613C392.734 239.13 391.004 235.03 388.825 230.949L388.384 231.184ZM393.274 243.724L392.787 243.836C394.249 250.214 391.987 256.363 386.768 260.209L387.065 260.611L387.362 261.014C392.904 256.929 395.312 250.375 393.762 243.613L393.274 243.724ZM387.065 260.611L386.799 260.188L378.469 265.428L378.735 265.851L379.001 266.275L387.331 261.035L387.065 260.611ZM378.735 265.851L378.469 265.428C375.764 267.13 372.192 269.148 369.793 271.675C368.586 272.948 367.641 274.381 367.256 276.007C366.868 277.645 367.058 279.429 368.035 281.372L368.482 281.147L368.929 280.922C368.045 279.167 367.901 277.622 368.229 276.237C368.56 274.841 369.384 273.56 370.519 272.364C372.806 269.954 376.222 268.023 379.001 266.275L378.735 265.851ZM368.482 281.147L368.035 281.372C368.691 282.676 369.503 283.863 370.356 285.021C371.218 286.192 372.1 287.304 372.953 288.522C374.639 290.93 376.124 293.634 376.653 297.392L377.148 297.322L377.643 297.252C377.084 293.282 375.509 290.43 373.772 287.949C372.914 286.723 371.992 285.557 371.161 284.428C370.32 283.286 369.547 282.151 368.929 280.922L368.482 281.147ZM377.148 297.322L376.653 297.392C376.915 299.253 376.458 301.17 375.636 303.066C374.814 304.962 373.646 306.797 372.53 308.491L372.947 308.766L373.365 309.041C374.48 307.348 375.693 305.449 376.553 303.464C377.414 301.479 377.941 299.367 377.643 297.252L377.148 297.322ZM372.947 308.766L372.53 308.491C371.147 310.589 370.341 313.138 371.332 315.679L371.798 315.497L372.263 315.315C371.439 313.2 372.073 311.001 373.365 309.041L372.947 308.766ZM371.798 315.497L371.332 315.679L373.481 321.19L373.947 321.008L374.413 320.827L372.263 315.315L371.798 315.497ZM373.947 321.008L373.481 321.19C375.039 325.185 375.254 328.701 374.364 331.942C373.471 335.192 371.455 338.216 368.464 341.196L368.817 341.55L369.17 341.904C372.236 338.849 374.374 335.68 375.328 332.207C376.284 328.726 376.036 324.988 374.413 320.827L373.947 321.008ZM368.817 341.55L368.464 341.196L364.487 345.16L364.839 345.514L365.192 345.868L369.17 341.904L368.817 341.55ZM364.839 345.514L364.487 345.16C361.619 348.018 360.749 351.79 360.915 355.658C361.08 359.521 362.278 363.532 363.607 366.954L364.073 366.772L364.539 366.591C363.226 363.212 362.072 359.319 361.914 355.616C361.755 351.917 362.59 348.461 365.192 345.868L364.839 345.514ZM364.073 366.772L363.607 366.954C367.094 375.927 367.749 384.726 362.761 393.116L363.191 393.371L363.62 393.627C368.82 384.882 368.093 375.736 364.539 366.591L364.073 366.772ZM363.191 393.371L362.761 393.116C359.858 397.998 355.956 401.91 351.271 405.154L351.556 405.565L351.84 405.976C356.624 402.664 360.633 398.652 363.62 393.627L363.191 393.371ZM351.556 405.565L351.271 405.154C342.966 410.905 335.177 412.616 325.08 412.81L325.09 413.31L325.099 413.81C335.329 413.614 343.327 411.871 351.84 405.976L351.556 405.565ZM325.09 413.31L325.08 412.81L315.343 412.997L315.352 413.497L315.362 413.997L325.099 413.81L325.09 413.31ZM315.352 413.497L315.366 412.997L314.581 412.975L314.567 413.475L314.553 413.975L315.338 413.997L315.352 413.497ZM314.567 413.475L314.581 412.975L313.741 412.952L313.727 413.452L313.714 413.952L314.554 413.975L314.567 413.475ZM313.727 413.452L313.741 412.952C313.55 412.947 313.399 413.036 313.305 413.139C313.223 413.229 313.183 413.327 313.163 413.387C313.122 413.51 313.109 413.643 313.103 413.736C313.097 413.837 313.096 413.943 313.095 414.021C313.094 414.063 313.094 414.096 313.093 414.124C313.093 414.138 313.092 414.148 313.092 414.156C313.091 414.164 313.091 414.167 313.091 414.166L313.588 414.225L314.084 414.283C314.093 414.205 314.094 414.101 314.095 414.033C314.096 413.949 314.097 413.871 314.101 413.801C314.106 413.723 314.114 413.697 314.112 413.703C314.111 413.706 314.095 413.757 314.043 413.814C313.978 413.885 313.863 413.956 313.714 413.952L313.727 413.452ZM313.588 414.225L313.091 414.166C312.602 418.282 311.501 422.042 309.286 425.513L309.707 425.782L310.129 426.051C312.445 422.422 313.582 418.508 314.084 414.284L313.588 414.225ZM309.707 425.782L309.286 425.513C304.169 433.53 294.948 438.211 285.438 437.359L285.394 437.857L285.349 438.355C295.241 439.241 304.816 434.374 310.129 426.051L309.707 425.782ZM285.394 437.857L285.438 437.359C272.337 436.185 262.28 425.508 261.939 412.404L261.439 412.417L260.939 412.43C261.294 426.045 271.745 437.136 285.349 438.355L285.394 437.857ZM261.439 412.417L261.939 412.404C261.832 408.283 262.995 404.504 264.675 400.74L264.219 400.536L263.762 400.332C262.052 404.162 260.827 408.099 260.939 412.43L261.439 412.417ZM264.219 400.536L264.675 400.74L265.017 399.975L264.56 399.771L264.103 399.567L263.762 400.332L264.219 400.536ZM264.56 399.771L265.017 399.975C265.179 399.61 264.918 399.341 264.848 399.276C264.75 399.187 264.628 399.119 264.543 399.075C264.45 399.027 264.346 398.979 264.269 398.943C264.18 398.902 264.126 398.875 264.096 398.856L263.835 399.283L263.574 399.709C263.66 399.761 263.764 399.811 263.844 399.849C263.936 399.891 264.013 399.926 264.082 399.962C264.157 400.002 264.178 400.019 264.173 400.015C264.17 400.012 264.13 399.976 264.099 399.905C264.061 399.816 264.048 399.69 264.103 399.567L264.56 399.771ZM263.835 399.283L264.096 398.856L215.612 369.211L215.352 369.637L215.091 370.064L263.574 399.709L263.835 399.283ZM215.352 369.637L215.612 369.211C199.004 359.056 183.041 348.049 167.4 336.523L167.103 336.926L166.806 337.328C182.464 348.866 198.452 359.89 215.091 370.064L215.352 369.637ZM167.103 336.926L167.077 336.426C166.816 336.44 166.609 336.471 166.41 336.538L166.57 337.012L166.73 337.486C166.812 337.458 166.921 337.436 167.129 337.425L167.103 336.926ZM166.57 337.012L166.073 336.959C164.587 350.716 162.712 364.097 159.959 377.787L160.449 377.886L160.939 377.985C163.7 364.257 165.579 350.844 167.067 337.066L166.57 337.012ZM105.54 63.0305L105.563 62.0307V62.0307L105.54 63.0305ZM139.985 55.2619L140.445 56.1499V56.1499L139.985 55.2619ZM180.252 33.5194L180.072 32.5357H180.072L180.252 33.5194ZM202.753 32.345L202.668 33.3414V33.3414L202.753 32.345ZM224.019 32.9214L224.068 33.9202L224.101 33.9186L224.134 33.9147L224.019 32.9214ZM242.335 28.6461L242.675 29.5863L243.411 29.3197L243.329 28.5414L242.335 28.6461ZM244.447 15.7223L245.349 16.154L245.897 15.0087L244.655 14.7443L244.447 15.7223ZM211.247 11.1826L211.168 12.1795L211.178 12.1802L211.247 11.1826ZM170.351 11.6134L170.465 12.6069V12.6069L170.351 11.6134ZM96.8985 34.459L97.3597 35.3463H97.3597L96.8985 34.459ZM79.6769 43.7257L80.1995 44.5783L80.1995 44.5783L79.6769 43.7257ZM56.4695 61.7416L57.1488 62.4754L57.1534 62.4712L56.4695 61.7416ZM47.0686 71.3453L47.8046 72.0223L47.8095 72.017L47.8142 72.0117L47.0686 71.3453ZM37.7188 82.6383L36.9113 82.0484L36.1929 83.0318L37.2973 83.5451L37.7188 82.6383ZM48.5015 91.815L47.6789 92.3837L48.3352 93.3329L49.1814 92.5483L48.5015 91.815ZM61.1758 80.0644L61.8557 80.7977L61.8621 80.7918L61.8683 80.7858L61.1758 80.0644ZM74.0057 70.0709L73.4803 69.22L73.4801 69.2201L74.0057 70.0709ZM73.6705 73.0743L74.2095 73.9166L74.2171 73.9117L74.2246 73.9067L73.6705 73.0743ZM63.21 81.3422L62.5302 80.6089L62.53 80.609L63.21 81.3422ZM49.7798 93.7967L49.0998 93.0634L48.5462 93.5768L48.8883 94.2499L49.7798 93.7967ZM52.0944 113.401L51.13 113.136L50.8909 114.008L51.734 114.333L52.0944 113.401ZM139.97 147.356L139.61 148.288L140.471 148.621L140.871 147.79L139.97 147.356ZM189.231 117.162L189.257 116.162V116.162L189.231 117.162ZM211.941 122.949L211.496 123.844L212.342 124.265L212.809 123.444L211.941 122.949ZM230.388 90.5736L231.257 91.0686L231.257 91.0683L230.388 90.5736ZM254.661 47.9377L255.53 48.4325L256.003 47.6005L255.193 47.0911L254.661 47.9377ZM242.677 30.9987L243.656 30.7929L243.425 29.694L242.36 30.0504L242.677 30.9987ZM223.556 35.2392L223.594 36.2384L223.625 36.2373L223.657 36.2341L223.556 35.2392ZM206.394 34.8814L206.461 33.8836L206.458 33.8834L206.394 34.8814ZM191.276 34.5129L191.318 35.512V35.512L191.276 34.5129ZM165.629 41.7202L165.083 40.8825V40.8825L165.629 41.7202ZM153.379 49.7034L152.833 48.8656L152.827 48.8695L153.379 49.7034ZM147.786 53.4051L147.234 52.5712V52.5712L147.786 53.4051ZM117.204 64.7597L117.084 63.7669V63.7669L117.204 64.7597ZM105.641 65.2516L105.647 64.2516V64.2516L105.641 65.2516ZM346.818 136.625L346.104 137.325L346.76 137.994L347.47 137.382L346.818 136.625ZM351.087 134.389L351.335 135.358L352.138 135.152L352.085 134.325L351.087 134.389ZM343.803 96.8356L342.863 97.1775V97.1775L343.803 96.8356ZM331.485 71.9759L332.328 71.4385L332.323 71.4304L331.485 71.9759ZM307.861 45.6376L308.498 44.8669L308.475 44.8478L308.451 44.8301L307.861 45.6376ZM293.018 34.7942L293.607 33.9867L292.551 33.215L292.084 34.4367L293.018 34.7942ZM281.094 48.6684L280.594 47.8025L279.852 48.231L280.162 49.0299L281.094 48.6684ZM298.023 73.1244L297.372 73.8839L297.399 73.9069L297.427 73.9279L298.023 73.1244ZM310.552 82.4052L309.957 83.2087L309.971 83.2189L309.985 83.2285L310.552 82.4052ZM327.29 100.792L328.196 100.369L328.183 100.341L328.168 100.314L327.29 100.792ZM333.912 114.946L333.006 115.369L333.007 115.371L333.912 114.946ZM339.237 126.277L338.332 126.702L338.345 126.728L338.359 126.754L339.237 126.277ZM239.168 159.192L238.189 159.392L238.377 160.315L239.309 160.182L239.168 159.192ZM279.066 153.509L279.207 154.499L280.15 154.365L280.061 153.416L279.066 153.509ZM276.286 123.836L275.29 123.927L275.291 123.93L276.286 123.836ZM269.708 51.7155L270.703 51.6247L270.616 50.6693L269.658 50.7167L269.708 51.7155ZM256.615 48.9962L257.065 48.1029L256.213 47.6741L255.744 48.5051L256.615 48.9962ZM245.746 68.2771L246.615 68.7723L246.617 68.7682L245.746 68.2771ZM225.846 103.196L224.977 102.701L224.976 102.703L225.846 103.196ZM213.98 124.123L213.11 123.63L212.63 124.476L213.464 124.979L213.98 124.123ZM331.776 116.063L332.689 115.657V115.657L331.776 116.063ZM326.873 105.049L325.959 105.456L325.959 105.456L326.873 105.049ZM319.813 93.917L320.582 93.278V93.278L319.813 93.917ZM295.686 74.1948L296.358 73.4537H296.358L295.686 74.1948ZM279.008 49.6014L279.946 49.2549L279.625 48.3863L278.734 48.6395L279.008 49.6014ZM271.912 51.6186L271.638 50.6568L270.84 50.8838L270.916 51.7107L271.912 51.6186ZM281.29 153.082L280.295 153.174L280.391 154.221L281.433 154.071L281.29 153.082ZM303.986 149.823L304.128 150.813L304.13 150.813L303.986 149.823ZM343.964 144.02L344.108 145.01L345.007 144.879L344.963 143.972L343.964 144.02ZM345.293 138.481L346.17 138.961L346.525 138.311L346.008 137.782L345.293 138.481ZM338.819 130.272L337.957 130.779L337.966 130.794L337.975 130.809L338.819 130.272ZM155.246 281.97L154.931 281.022L154.929 281.022L155.246 281.97ZM169.447 277.243L169.763 278.191L170.403 277.978L170.445 277.306L169.447 277.243ZM171.68 241.804L170.682 241.734L170.682 241.742L171.68 241.804ZM173.2 220.198L174.198 220.268L174.256 219.449L173.463 219.233L173.2 220.198ZM159.16 213.856L159.692 213.009V213.009L159.16 213.856ZM139.068 149.465L139.987 149.859L140.395 148.905L139.428 148.532L139.068 149.465ZM51.391 115.602L51.7512 114.669L50.8152 114.307L50.4569 115.244L51.391 115.602ZM43.7625 126.515L43.0879 125.777L42.4042 126.402L42.9749 127.132L43.7625 126.515ZM78.1085 170.421L77.3209 171.037L77.935 171.822L78.7221 171.21L78.1085 170.421ZM95.4488 169.396L94.9244 170.247H94.9244L95.4488 169.396ZM102.487 184.714L101.499 184.558L101.498 184.567L101.497 184.575L102.487 184.714ZM91.5681 197.011L91.3032 196.046L90.4271 196.287L90.5829 197.182L91.5681 197.011ZM104.263 269.936L103.278 270.107L103.432 270.994L104.33 270.933L104.263 269.936ZM131.631 289.88L130.657 290.109L130.908 291.177L131.948 290.828L131.631 289.88ZM60.4073 267.225L59.6547 267.883V267.883L60.4073 267.225ZM82.1059 284.812L81.6119 285.681L82.5206 286.197L82.9963 285.267L82.1059 284.812ZM102.053 270.129L102.228 271.113L103.209 270.939L103.038 269.957L102.053 270.129ZM89.3812 197.456L90.3664 197.284L90.2068 196.369L89.2825 196.461L89.3812 197.456ZM76.0404 192.327L76.8019 191.679V191.679L76.0404 192.327ZM76.3869 171.946L77.1319 172.613L77.6904 171.989L77.1747 171.33L76.3869 171.946ZM41.9277 127.878L42.7154 127.262L42.1716 126.566L41.414 127.02L41.9277 127.878ZM38.978 129.644L38.4644 128.786V128.786L38.978 129.644ZM26.3837 132.62L26.4366 131.621L25.5118 131.572L25.3921 132.49L26.3837 132.62ZM24.8651 144.265L23.8735 144.135V144.135L24.8651 144.265ZM24.0796 157.605L23.0796 157.6L23.0795 157.627L23.0808 157.654L24.0796 157.605ZM33.3069 185.043L32.4609 185.576H32.4609L33.3069 185.043ZM39.5599 194.963L40.4058 194.429V194.429L39.5599 194.963ZM46.1528 214.026L47.1484 213.932L47.1462 213.909L47.1428 213.885L46.1528 214.026ZM47.5228 228.615L46.5272 228.708V228.708L47.5228 228.615ZM93.0134 318.752L93.9626 319.067L94.2223 318.284L93.5026 317.88L93.0134 318.752ZM81.0949 287.106L82.0332 287.452L82.3158 286.685L81.6206 286.256L81.0949 287.106ZM52.946 260.812L52.0691 261.293L52.0799 261.313L52.0917 261.332L52.946 260.812ZM45.2256 228.849L46.2214 228.757V228.757L45.2256 228.849ZM43.9491 214.956L44.9449 214.865L44.9434 214.849L44.9414 214.832L43.9491 214.956ZM36.85 194.858L37.6943 194.322V194.322L36.85 194.858ZM30.1807 184.351L31.025 183.815H31.025L30.1807 184.351ZM21.784 154.242L22.7828 154.292L22.7834 154.281L22.7837 154.27L21.784 154.242ZM24.1061 132.62L25.0953 132.766L25.2466 131.744L24.2197 131.626L24.1061 132.62ZM13.3572 129.367L13.8277 128.484L12.795 127.934L12.4122 129.04L13.3572 129.367ZM4.1563 178.584L3.15694 178.548L3.15662 178.557L3.15647 178.566L4.1563 178.584ZM3.89273 193.263L2.89289 193.246L2.89253 193.266L2.89298 193.286L3.89273 193.263ZM8.81854 233.627L9.79446 233.409L9.79446 233.409L8.81854 233.627ZM24.2199 279.229L25.1162 278.786V278.786L24.2199 279.229ZM32.3725 295.712L31.4762 296.156L31.4823 296.168L31.4887 296.18L32.3725 295.712ZM39.9237 309.981L39.0399 310.448L39.0441 310.456L39.0485 310.464L39.9237 309.981ZM52.5984 332.912L53.5012 332.481L53.4882 332.454L53.4736 332.428L52.5984 332.912ZM60.5502 349.599L61.4653 349.196L61.4593 349.182L61.4529 349.169L60.5502 349.599ZM68.331 377.353L67.3409 377.493L67.4714 378.417L68.4025 378.351L68.331 377.353ZM73.8872 377.956L73.625 378.921L74.5474 379.172L74.8394 378.262L73.8872 377.956ZM88.9033 331.15L87.9541 330.835L87.9511 330.844L88.9033 331.15ZM313.512 198.416L312.685 197.854L312.682 197.859L313.512 198.416ZM346.543 149.809L347.37 150.371L347.816 149.714L347.278 149.13L346.543 149.809ZM344.377 146.31L345.311 145.952L345.025 145.206L344.234 145.32L344.377 146.31ZM281.493 155.38L281.35 154.39L280.412 154.526L280.497 155.47L281.493 155.38ZM286.641 212.267L285.646 212.357L285.734 213.335L286.713 213.264L286.641 212.267ZM301.894 215.718L301.431 216.604L302.225 217.019L302.724 216.275L301.894 215.718ZM261.688 336.249L261.004 336.978V336.978L261.688 336.249ZM273.87 363.682L272.878 363.807L272.878 363.808L273.87 363.682ZM274.856 371.415L275.848 371.29L275.848 371.288L274.856 371.415ZM279.635 387.197L278.748 387.657L279.136 388.406L279.939 388.149L279.635 387.197ZM295.462 387.009L295.189 387.971L296.204 388.259L296.437 387.23L295.462 387.009ZM312.326 312.489L311.351 312.266L311.35 312.268L312.326 312.489ZM336.315 207.317L335.341 207.093L335.34 207.095L336.315 207.317ZM343.271 177.052L342.297 176.827L342.296 176.828L343.271 177.052ZM349.005 152.235L349.98 152.46L349.98 152.46L349.005 152.235ZM348.807 151.481L348.818 150.481H348.818L348.807 151.481ZM348.185 151.474L348.196 150.474L347.659 150.469L347.358 150.913L348.185 151.474ZM320.214 192.695L319.387 192.133L319.386 192.135L320.214 192.695ZM303.785 216.99L302.957 216.43L302.417 217.229L303.196 217.798L303.785 216.99ZM313.04 248.089L313.966 248.466L313.97 248.457L313.973 248.449L313.04 248.089ZM284.454 264.407L284.291 265.394V265.394L284.454 264.407ZM271.355 258.494L272.002 257.731L271.328 257.16L270.678 257.758L271.355 258.494ZM237.533 289.612L236.856 288.876L236.554 289.155L236.534 289.566L237.533 289.612ZM239.174 306.848L240.147 306.618V306.618L239.174 306.848ZM244.824 319.14L244.013 319.725L244.019 319.733L244.025 319.742L244.824 319.14ZM252.62 327.749L253.304 327.019V327.019L252.62 327.749ZM371.507 321.026L370.573 321.382V321.382L371.507 321.026ZM369.637 316.112L368.675 316.383L368.687 316.426L368.703 316.468L369.637 316.112ZM371.165 307.231L370.309 306.714H370.309L371.165 307.231ZM373.671 303.076L374.527 303.592V303.592L373.671 303.076ZM373.859 293.674L374.771 293.265V293.265L373.859 293.674ZM369.684 287.087L368.854 287.645L368.854 287.645L369.684 287.087ZM366.59 282.482L365.708 282.955L365.732 282.998L365.76 283.04L366.59 282.482ZM368.023 270.992L368.757 271.672V271.672L368.023 270.992ZM375.311 265.248L374.793 264.392V264.392L375.311 265.248ZM383.946 260.025L383.428 259.17V259.17L383.946 260.025ZM389.153 255.247L389.961 255.837V255.837L389.153 255.247ZM391.383 246.323L390.387 246.417V246.417L391.383 246.323ZM388.974 237.547L388.086 238.006V238.006L388.974 237.547ZM383.288 226.549L384.176 226.089L384.172 226.083L383.288 226.549ZM371.964 205.058L371.073 205.513L371.079 205.524L371.964 205.058ZM360.796 183.169L361.687 182.715V182.715L360.796 183.169ZM354.278 164.807L353.286 164.936L353.29 164.966L353.296 164.996L354.278 164.807ZM352.673 152.51L353.664 152.381L353.628 152.103L353.452 151.884L352.673 152.51ZM351.303 152.457L350.45 151.935L350.365 152.074L350.328 152.233L351.303 152.457ZM348.519 164.579L349.493 164.806L349.494 164.803L348.519 164.579ZM343.675 185.392L342.701 185.165L342.7 185.17L343.675 185.392ZM339.092 205.486L340.067 205.709L340.067 205.708L339.092 205.486ZM331.903 236.998L332.878 237.221L332.878 237.22L331.903 236.998ZM317.682 299.142L316.707 298.919L316.707 298.921L317.682 299.142ZM297.587 387.79L296.612 387.569L296.431 388.369L297.179 388.703L297.587 387.79ZM313.653 411.242L312.654 411.276L312.687 412.26L313.671 412.242L313.653 411.242ZM326.373 411.013L326.391 412.013V412.013L326.373 411.013ZM344.67 406.873L344.245 405.968L344.239 405.971L344.67 406.873ZM360.803 392.791L361.649 393.325H361.649L360.803 392.791ZM363.995 374.291L364.972 374.08L364.962 374.034L364.948 373.989L363.995 374.291ZM361.285 365.736L360.331 366.038V366.038L361.285 365.736ZM359.005 355.782L360.004 355.728V355.728L359.005 355.782ZM367.318 339.79L366.656 339.041V339.041L367.318 339.79ZM373.027 329.375L374.017 329.515V329.515L373.027 329.375ZM226.972 248.415L226.232 249.088V249.088L226.972 248.415ZM232.959 256.06L232.11 256.588L232.529 257.26L233.279 257.007L232.959 256.06ZM253.719 249.052L253.403 248.103L253.4 248.104L253.719 249.052ZM263.044 245.944L263.36 246.893L264.251 246.596L264.011 245.688L263.044 245.944ZM284.395 212.495L284.569 213.48L285.473 213.32L285.39 212.405L284.395 212.495ZM279.263 155.731L280.259 155.641L280.165 154.592L279.122 154.741L279.263 155.731ZM239.533 161.422L239.391 160.432L238.368 160.578L238.548 161.596L239.533 161.422ZM237.055 187.751L237.991 188.104L237.994 188.096L237.055 187.751ZM224.787 206.756L225.468 207.488L225.484 207.473L225.5 207.457L224.787 206.756ZM209.272 217.379L208.847 216.474L208.159 216.797L208.286 217.546L209.272 217.379ZM218.848 239.491L218.108 240.164V240.164L218.848 239.491ZM210.845 263.444L211.162 264.392L211.165 264.391L210.845 263.444ZM230.664 256.742L230.984 257.689L232.209 257.275L231.5 256.194L230.664 256.742ZM225.762 250.522L226.491 249.838V249.838L225.762 250.522ZM218.692 242.982L217.947 243.649L217.955 243.658L217.963 243.666L218.692 242.982ZM207.064 218.321L208.045 218.127L207.816 216.965L206.709 217.386L207.064 218.321ZM175.357 220.825L175.571 219.848L174.435 219.599L174.36 220.76L175.357 220.825ZM174.25 237.841L173.252 237.777L173.252 237.779L174.25 237.841ZM171.83 276.429L170.832 276.366L170.739 277.842L172.143 277.378L171.83 276.429ZM185.6 271.884L185.913 272.834L185.917 272.832L185.6 271.884ZM237.707 286.381L236.708 286.331L236.588 288.766L238.383 287.117L237.707 286.381ZM269.723 256.978L270.4 257.715L271.179 256.999L270.421 256.261L269.723 256.978ZM263.811 248.102L264.737 247.724L264.383 246.856L263.494 247.153L263.811 248.102ZM234.092 258.048L233.775 257.099L232.686 257.464L233.197 258.492L234.092 258.048ZM238.245 275.512L239.244 275.561V275.561L238.245 275.512ZM269.78 392.866L270.507 393.552L271.113 392.911L270.552 392.229L269.78 392.866ZM238.633 355.083L239.405 354.447L239.404 354.446L238.633 355.083ZM217.25 329.214L218.021 328.577L217.417 327.846L216.655 328.41L217.25 329.214ZM196.935 327.181L196.192 327.85V327.85L196.935 327.181ZM196.958 306.938L197.707 307.601V307.601L196.958 306.938ZM217.385 304.967L216.795 305.774L217.455 306.256L218.059 305.706L217.385 304.967ZM235.26 288.679L235.933 289.418L236.236 289.142L236.258 288.733L235.26 288.679ZM235.921 276.551L236.92 276.606L236.921 276.585L236.921 276.564L235.921 276.551ZM231.798 258.789L232.668 258.296L232.262 257.578L231.48 257.841L231.798 258.789ZM203.873 268.159L204.191 269.108L204.192 269.107L203.873 268.159ZM171.615 278.966L171.297 278.018L170.67 278.229L170.618 278.889L171.615 278.966ZM169.421 307.064L170.416 307.157L170.417 307.15L170.418 307.142L169.421 307.064ZM166.899 334.01L165.904 333.917L165.851 334.478L166.305 334.814L166.899 334.01ZM221.92 370.994L221.396 371.846L221.92 370.994ZM246.219 385.933L245.696 386.785L245.701 386.788L246.219 385.933ZM265.727 397.761L265.209 398.616L266.046 399.124L266.571 398.298L265.727 397.761ZM138.165 312.776L137.568 313.578L137.57 313.579L138.165 312.776ZM164.839 332.548L164.243 333.351L165.686 334.421L165.835 332.631L164.839 332.548ZM169.244 279.752L170.241 279.836L170.367 278.322L168.927 278.804L169.244 279.752ZM132.074 292.187L131.757 291.239L130.964 291.504L131.085 292.331L132.074 292.187ZM130.077 306.761L129.161 306.359L128.842 307.088L129.48 307.563L130.077 306.761ZM272.548 371.81L273.539 371.675V371.675L272.548 371.81ZM271.021 360.612L270.03 360.747V360.747L271.021 360.612ZM260.883 338.709L261.571 337.983V337.983L260.883 338.709ZM252.859 331.105L252.153 331.813L252.162 331.822L252.171 331.831L252.859 331.105ZM246.305 324.577L245.575 325.26L245.587 325.273L245.599 325.285L246.305 324.577ZM235.15 291.803L236.15 291.82L236.189 289.49L234.473 291.067L235.15 291.803ZM219.211 306.457L218.534 305.72L217.831 306.366L218.443 307.098L219.211 306.457ZM219.075 327.708L218.34 327.03L217.748 327.672L218.304 328.345L219.075 327.708ZM250.962 366.314L251.734 365.679L251.733 365.677L250.962 366.314ZM271.622 391.434L270.85 392.069L271.466 392.818L272.234 392.225L271.622 391.434ZM277.346 387.986L277.764 388.894L278.707 388.461L278.239 387.535L277.346 387.986ZM135.101 410.482L134.568 411.328V411.328L135.101 410.482ZM144.413 409.9L143.782 409.124V409.124L144.413 409.9ZM154.936 390.422L155.889 390.725L155.893 390.714L155.896 390.703L154.936 390.422ZM159.324 371.496L158.335 371.354V371.354L159.324 371.496ZM164.534 335.144L165.524 335.286L165.608 334.696L165.129 334.341L164.534 335.144ZM129.045 308.819L129.641 308.016L128.756 307.359L128.188 308.303L129.045 308.819ZM110.187 321.808L110.022 320.822L109.067 320.982L109.196 321.941L110.187 321.808ZM112.367 338.07L113.359 337.94L113.358 337.938L112.367 338.07ZM119.689 377.853L118.716 378.083L118.719 378.097L118.723 378.11L119.689 377.853ZM125.537 395.849L124.613 396.229V396.229L125.537 395.849ZM105.54 63.0305L105.518 64.0302C117.848 64.3049 129.595 61.7708 140.445 56.1499L139.985 55.2619L139.525 54.374C128.992 59.8304 117.58 62.2985 105.563 62.0307L105.54 63.0305ZM139.985 55.2619L140.445 56.1499C147.271 52.6143 153.508 47.8231 159.823 43.6824C166.19 39.5075 172.739 35.9124 180.432 34.503L180.252 33.5194L180.072 32.5357C171.981 34.0179 165.163 37.7891 158.726 42.0099C152.237 46.2651 146.233 50.8994 139.525 54.374L139.985 55.2619ZM180.252 33.5194L180.432 34.503C187.911 33.1329 195.108 32.7016 202.668 33.3414L202.753 32.345L202.837 31.3485C195.085 30.6925 187.709 31.1365 180.072 32.5357L180.252 33.5194ZM202.753 32.345L202.668 33.3414C209.855 33.9496 216.827 34.2715 224.068 33.9202L224.019 32.9214L223.971 31.9225C216.852 32.268 209.976 31.9526 202.837 31.3485L202.753 32.345ZM224.019 32.9214L224.134 33.9147C230.535 33.173 236.597 31.7881 242.675 29.5863L242.335 28.6461L241.994 27.7058C236.07 29.852 230.16 31.2031 223.904 31.928L224.019 32.9214ZM242.335 28.6461L243.329 28.5414C242.878 24.2551 243.448 20.126 245.349 16.154L244.447 15.7223L243.545 15.2907C241.467 19.6332 240.855 24.1396 241.34 28.7507L242.335 28.6461ZM244.447 15.7223L244.655 14.7443C233.589 12.3875 222.643 10.9709 211.316 10.185L211.247 11.1826L211.178 12.1802C222.426 12.9607 233.278 14.366 244.239 16.7004L244.447 15.7223ZM211.247 11.1826L211.326 10.1857C197.606 9.09817 183.924 9.0488 170.237 10.6199L170.351 11.6134L170.465 12.6069C183.998 11.0535 197.547 11.0997 211.168 12.1795L211.247 11.1826ZM170.351 11.6134L170.237 10.6199C144.331 13.5935 119.493 21.5896 96.4374 33.5717L96.8985 34.459L97.3597 35.3463C120.217 23.4675 144.821 15.5505 170.465 12.6069L170.351 11.6134ZM96.8985 34.459L96.4374 33.5717C90.6146 36.5977 84.8117 39.4057 79.1544 42.8731L79.6769 43.7257L80.1995 44.5783C85.777 41.1599 91.4707 38.4068 97.3597 35.3463L96.8985 34.459ZM79.6769 43.7257L79.1544 42.8731C70.6438 48.0891 63.0237 54.2271 55.7856 61.012L56.4695 61.7416L57.1534 62.4712C64.3198 55.7535 71.8325 49.7063 80.1995 44.5783L79.6769 43.7257ZM56.4695 61.7416L55.7901 61.0078C52.3979 64.1483 49.3874 67.2505 46.323 70.6789L47.0686 71.3453L47.8142 72.0117C50.842 68.6242 53.8085 65.5679 57.1488 62.4754L56.4695 61.7416ZM47.0686 71.3453L46.3326 70.6684C42.9558 74.34 39.8328 78.0493 36.9113 82.0484L37.7188 82.6383L38.5263 83.2282C41.3941 79.3026 44.4667 75.6516 47.8046 72.0223L47.0686 71.3453ZM37.7188 82.6383L37.2973 83.5451C41.5595 85.5259 44.9506 88.4373 47.6789 92.3837L48.5015 91.815L49.3241 91.2463C46.4025 87.0205 42.7397 83.869 38.1402 81.7314L37.7188 82.6383ZM48.5015 91.815L49.1814 92.5483L61.8557 80.7977L61.1758 80.0644L60.4959 79.3311L47.8216 91.0817L48.5015 91.815ZM61.1758 80.0644L61.8683 80.7858C65.7979 77.0133 69.9118 73.7752 74.5312 70.9217L74.0057 70.0709L73.4801 69.2201C68.732 72.1532 64.5071 75.48 60.4833 79.343L61.1758 80.0644ZM74.0057 70.0709L74.531 70.9218C83.5818 65.3343 94.5068 63.7849 105.518 64.0302L105.54 63.0305L105.563 62.0307C94.3713 61.7814 82.9997 63.3432 73.4803 69.22L74.0057 70.0709ZM73.6705 73.0743L73.1315 72.232C69.2577 74.7108 65.8869 77.4971 62.5302 80.6089L63.21 81.3422L63.8898 82.0756C67.1929 79.0135 70.4682 76.3106 74.2095 73.9166L73.6705 73.0743ZM63.21 81.3422L62.53 80.609L49.0998 93.0634L49.7798 93.7967L50.4597 94.5299L63.89 82.0755L63.21 81.3422ZM49.7798 93.7967L48.8883 94.2499C51.9015 100.177 52.8844 106.742 51.13 113.136L52.0944 113.401L53.0588 113.665C54.963 106.725 53.8767 99.6487 50.6712 93.3435L49.7798 93.7967ZM52.0944 113.401L51.734 114.333L139.61 148.288L139.97 147.356L140.331 146.423L52.4548 112.468L52.0944 113.401ZM139.97 147.356L140.871 147.79C149.742 129.383 168.727 117.627 189.205 118.161L189.231 117.162L189.257 116.162C167.982 115.607 148.277 127.816 139.07 146.921L139.97 147.356ZM189.231 117.162L189.205 118.161C197.082 118.367 204.539 120.387 211.496 123.844L211.941 122.949L212.386 122.053C205.192 118.478 197.451 116.376 189.257 116.162L189.231 117.162ZM211.941 122.949L212.809 123.444L231.257 91.0686L230.388 90.5736L229.52 90.0785L211.072 122.454L211.941 122.949ZM230.388 90.5736L231.257 91.0683L255.53 48.4325L254.661 47.9377L253.792 47.443L229.519 90.0788L230.388 90.5736ZM254.661 47.9377L255.193 47.0911C249.22 43.3365 245.103 37.6751 243.656 30.7929L242.677 30.9987L241.699 31.2045C243.264 38.6477 247.724 44.7582 254.129 48.7843L254.661 47.9377ZM242.677 30.9987L242.36 30.0504C236.13 32.1354 229.952 33.5848 223.455 34.2443L223.556 35.2392L223.657 36.2341C230.325 35.5573 236.649 34.0707 242.995 31.947L242.677 30.9987ZM223.556 35.2392L223.518 34.2399C217.744 34.458 212.244 34.2709 206.461 33.8836L206.394 34.8814L206.327 35.8791C212.152 36.2693 217.726 36.4601 223.594 36.2384L223.556 35.2392ZM206.394 34.8814L206.458 33.8834C201.344 33.5533 196.407 33.2944 191.234 33.5138L191.276 34.5129L191.318 35.512C196.377 35.2975 201.222 35.5496 206.329 35.8793L206.394 34.8814ZM191.276 34.5129L191.234 33.5138C182.408 33.8881 172.573 36.0009 165.083 40.8825L165.629 41.7202L166.175 42.558C173.255 37.9439 182.693 35.8778 191.318 35.512L191.276 34.5129ZM165.629 41.7202L165.083 40.8825L152.833 48.8656L153.379 49.7034L153.925 50.5412L166.175 42.558L165.629 41.7202ZM153.379 49.7034L152.827 48.8695L147.234 52.5712L147.786 53.4051L148.338 54.239L153.931 50.5373L153.379 49.7034ZM147.786 53.4051L147.234 52.5712C138.165 58.5735 127.945 62.4554 117.084 63.7669L117.204 64.7597L117.323 65.7525C128.508 64.402 139.021 60.4053 148.338 54.239L147.786 53.4051ZM117.204 64.7597L117.084 63.7669C113.207 64.235 109.566 64.276 105.647 64.2516L105.641 65.2516L105.634 66.2516C109.568 66.276 113.314 66.2366 117.323 65.7525L117.204 64.7597ZM105.641 65.2516L105.647 64.2516C93.8997 64.1786 83.2091 65.5239 73.1164 72.2418L73.6705 73.0743L74.2246 73.9067C83.828 67.5145 94.0415 66.1795 105.634 66.2516L105.641 65.2516ZM346.818 136.625L347.47 137.382C348.773 136.261 349.768 135.759 351.335 135.358L351.087 134.389L350.839 133.42C348.977 133.897 347.704 134.542 346.165 135.867L346.818 136.625ZM351.087 134.389L352.085 134.325C351.261 121.38 349.248 108.876 344.742 96.4937L343.803 96.8356L342.863 97.1775C347.284 109.329 349.273 121.632 350.089 134.452L351.087 134.389ZM343.803 96.8356L344.742 96.4937C341.515 87.6224 337.401 79.3995 332.328 71.4385L331.485 71.9759L330.641 72.5133C335.641 80.3578 339.688 88.4502 342.863 97.1775L343.803 96.8356ZM331.485 71.9759L332.323 71.4304C325.762 61.3494 317.755 52.5195 308.498 44.8669L307.861 45.6376L307.224 46.4083C316.333 53.939 324.202 62.619 330.647 72.5214L331.485 71.9759ZM307.861 45.6376L308.451 44.8301L293.607 33.9867L293.018 34.7942L292.428 35.6016L307.271 46.4451L307.861 45.6376ZM293.018 34.7942L292.084 34.4367C289.856 40.2567 285.908 44.7337 280.594 47.8025L281.094 48.6684L281.594 49.5344C287.288 46.2462 291.553 41.4184 293.952 35.1516L293.018 34.7942ZM281.094 48.6684L280.162 49.0299C283.872 58.6015 289.56 67.1947 297.372 73.8839L298.023 73.1244L298.673 72.3648C291.144 65.9179 285.633 57.6128 282.026 48.307L281.094 48.6684ZM298.023 73.1244L297.427 73.9279L309.957 83.2087L310.552 82.4052L311.148 81.6016L298.618 72.3208L298.023 73.1244ZM310.552 82.4052L309.985 83.2285C316.872 87.9753 322.417 93.9347 326.412 101.271L327.29 100.792L328.168 100.314C324.013 92.6829 318.246 86.4936 311.12 81.5818L310.552 82.4052ZM327.29 100.792L326.384 101.216L333.006 115.369L333.912 114.946L334.818 114.522L328.196 100.369L327.29 100.792ZM333.912 114.946L333.007 115.371L338.332 126.702L339.237 126.277L340.143 125.851L334.817 114.52L333.912 114.946ZM339.237 126.277L338.359 126.754C340.47 130.646 343.001 134.162 346.104 137.325L346.818 136.625L347.532 135.924C344.571 132.906 342.147 129.543 340.116 125.8L339.237 126.277ZM239.168 159.192L239.309 160.182L279.207 154.499L279.066 153.509L278.925 152.519L239.027 158.202L239.168 159.192ZM279.066 153.509L280.061 153.416L277.282 123.743L276.286 123.836L275.291 123.93L278.07 153.602L279.066 153.509ZM276.286 123.836L277.282 123.746L270.703 51.6247L269.708 51.7155L268.712 51.8064L275.29 123.927L276.286 123.836ZM269.708 51.7155L269.658 50.7167C265.265 50.9344 261.043 50.1053 257.065 48.1029L256.615 48.9962L256.166 49.8894C260.469 52.0551 265.036 52.9482 269.757 52.7143L269.708 51.7155ZM256.615 48.9962L255.744 48.5051L244.875 67.7861L245.746 68.2771L246.617 68.7682L257.486 49.4873L256.615 48.9962ZM245.746 68.2771L244.877 67.782L224.977 102.701L225.846 103.196L226.715 103.691L246.615 68.7723L245.746 68.2771ZM225.846 103.196L224.976 102.703L213.11 123.63L213.98 124.123L214.85 124.616L226.716 103.689L225.846 103.196ZM213.98 124.123L213.464 124.979C226.423 132.795 235.146 144.46 238.189 159.392L239.168 159.192L240.148 158.992C236.986 143.475 227.901 131.351 214.496 123.267L213.98 124.123ZM331.776 116.063L332.689 115.657L327.786 104.643L326.873 105.049L325.959 105.456L330.862 116.47L331.776 116.063ZM326.873 105.049L327.786 104.643C325.933 100.479 323.478 96.7639 320.582 93.278L319.813 93.917L319.044 94.5561C321.847 97.9307 324.194 101.491 325.959 105.456L326.873 105.049ZM319.813 93.917L320.582 93.278C316.877 88.819 312.755 85.6359 308.607 82.6843C304.436 79.7174 300.291 77.0169 296.358 73.4537L295.686 74.1948L295.015 74.936C299.063 78.6028 303.36 81.406 307.447 84.314C311.556 87.2373 315.507 90.3003 319.044 94.5561L319.813 93.917ZM295.686 74.1948L296.358 73.4537C288.984 66.7745 283.412 58.6396 279.946 49.2549L279.008 49.6014L278.07 49.9479C281.65 59.642 287.409 68.0457 295.015 74.936L295.686 74.1948ZM279.008 49.6014L278.734 48.6395L271.638 50.6568L271.912 51.6186L272.185 52.5805L279.281 50.5633L279.008 49.6014ZM271.912 51.6186L270.916 51.7107L280.295 153.174L281.29 153.082L282.286 152.989L272.907 51.5266L271.912 51.6186ZM281.29 153.082L281.433 154.071L304.128 150.813L303.986 149.823L303.844 148.833L281.148 152.092L281.29 153.082ZM303.986 149.823L304.13 150.813L344.108 145.01L343.964 144.02L343.82 143.031L303.843 148.834L303.986 149.823ZM343.964 144.02L344.963 143.972C344.873 142.128 345.34 140.478 346.17 138.961L345.293 138.481L344.415 138.001C343.436 139.79 342.855 141.803 342.965 144.069L343.964 144.02ZM345.293 138.481L346.008 137.782C343.56 135.277 341.531 132.67 339.662 129.735L338.819 130.272L337.975 130.809C339.912 133.851 342.025 136.568 344.577 139.18L345.293 138.481ZM338.819 130.272L339.68 129.765C336.997 125.203 334.87 120.555 332.689 115.657L331.776 116.063L330.862 116.47C333.044 121.37 335.21 126.11 337.957 130.779L338.819 130.272ZM155.246 281.97L155.562 282.919L169.763 278.191L169.447 277.243L169.132 276.294L154.931 281.022L155.246 281.97ZM169.447 277.243L170.445 277.306L172.678 241.867L171.68 241.804L170.682 241.742L168.449 277.18L169.447 277.243ZM171.68 241.804L172.677 241.875L174.198 220.268L173.2 220.198L172.203 220.128L170.682 241.734L171.68 241.804ZM173.2 220.198L173.463 219.233C168.36 217.846 163.985 215.703 159.692 213.009L159.16 213.856L158.629 214.703C163.042 217.473 167.599 219.712 172.938 221.163L173.2 220.198ZM159.16 213.856L159.692 213.009C138.434 199.668 130.046 173.039 139.987 149.859L139.068 149.465L138.148 149.07C127.818 173.159 136.538 200.84 158.629 214.703L159.16 213.856ZM139.068 149.465L139.428 148.532L51.7512 114.669L51.391 115.602L51.0307 116.534L138.707 150.397L139.068 149.465ZM51.391 115.602L50.4569 115.244C48.8484 119.451 46.2695 122.869 43.0879 125.777L43.7625 126.515L44.4371 127.254C47.8027 124.178 50.585 120.51 52.325 115.959L51.391 115.602ZM43.7625 126.515L42.9749 127.132L77.3209 171.037L78.1085 170.421L78.8962 169.804L44.5502 125.899L43.7625 126.515ZM78.1085 170.421L78.7221 171.21C83.5972 167.422 89.9454 167.181 94.9244 170.247L95.4488 169.396L95.9732 168.544C90.2865 165.042 83.0311 165.33 77.495 169.631L78.1085 170.421ZM95.4488 169.396L94.9244 170.247C99.7337 173.209 102.409 178.797 101.499 184.558L102.487 184.714L103.475 184.87C104.513 178.299 101.458 171.922 95.9732 168.544L95.4488 169.396ZM102.487 184.714L101.497 184.575C100.718 190.136 96.8657 194.518 91.3032 196.046L91.5681 197.011L91.833 197.975C98.1524 196.239 102.587 191.217 103.477 184.853L102.487 184.714ZM91.5681 197.011L90.5829 197.182L103.278 270.107L104.263 269.936L105.248 269.764L92.5533 196.839L91.5681 197.011ZM104.263 269.936L104.33 270.933C116.711 270.101 127.841 278.145 130.657 290.109L131.631 289.88L132.604 289.651C129.557 276.708 117.525 268.042 104.196 268.938L104.263 269.936ZM131.631 289.88L131.948 290.828L155.564 282.919L155.246 281.97L154.929 281.022L131.313 288.932L131.631 289.88ZM60.4073 267.225L59.6547 267.883C65.9109 275.034 73.3634 280.994 81.6119 285.681L82.1059 284.812L82.5999 283.942C74.5347 279.359 67.2601 273.539 61.16 266.566L60.4073 267.225ZM82.1059 284.812L82.9963 285.267C87.1121 277.214 93.5281 272.662 102.228 271.113L102.053 270.129L101.877 269.144C92.5824 270.799 85.6256 275.728 81.2155 284.357L82.1059 284.812ZM102.053 270.129L103.038 269.957L90.3664 197.284L89.3812 197.456L88.3961 197.628L101.067 270.301L102.053 270.129ZM89.3812 197.456L89.2825 196.461C84.3772 196.948 79.8487 195.258 76.8019 191.679L76.0404 192.327L75.2789 192.975C78.7889 197.099 83.983 198.997 89.4799 198.451L89.3812 197.456ZM76.0404 192.327L76.8019 191.679C72.1279 186.188 72.2394 178.076 77.1319 172.613L76.3869 171.946L75.642 171.279C70.0909 177.477 69.948 186.713 75.2789 192.975L76.0404 192.327ZM76.3869 171.946L77.1747 171.33L42.7154 127.262L41.9277 127.878L41.1399 128.494L75.5992 172.562L76.3869 171.946ZM41.9277 127.878L41.414 127.02L38.4644 128.786L38.978 129.644L39.4917 130.502L42.4413 128.736L41.9277 127.878ZM38.978 129.644L38.4644 128.786C34.8368 130.957 30.7947 131.852 26.4366 131.621L26.3837 132.62L26.3308 133.618C31.0427 133.868 35.4873 132.899 39.4917 130.502L38.978 129.644ZM26.3837 132.62L25.3921 132.49L23.8735 144.135L24.8651 144.265L25.8567 144.394L27.3753 132.749L26.3837 132.62ZM24.8651 144.265L23.8735 144.135C23.2794 148.691 23.1022 153.031 23.0796 157.6L24.0796 157.605L25.0796 157.61C25.102 153.086 25.2774 148.836 25.8567 144.394L24.8651 144.265ZM24.0796 157.605L23.0808 157.654C23.5775 167.835 27.1129 177.093 32.4609 185.576L33.3069 185.043L34.1528 184.51C28.9439 176.247 25.5547 167.319 25.0784 157.556L24.0796 157.605ZM33.3069 185.043L32.4609 185.576L38.7139 195.496L39.5599 194.963L40.4058 194.429L34.1528 184.51L33.3069 185.043ZM39.5599 194.963L38.7139 195.496C42.2857 201.162 44.2065 207.444 45.1628 214.167L46.1528 214.026L47.1428 213.885C46.1584 206.965 44.1662 200.395 40.4058 194.429L39.5599 194.963ZM46.1528 214.026L45.1572 214.119L46.5272 228.708L47.5228 228.615L48.5185 228.521L47.1484 213.932L46.1528 214.026ZM47.5228 228.615L46.5272 228.708C47.9213 243.554 49.0813 255.798 59.6547 267.883L60.4073 267.225L61.16 266.566C51.0599 255.022 49.916 243.404 48.5185 228.521L47.5228 228.615ZM93.0134 318.752L93.5026 317.88C82.5574 311.741 77.8032 298.93 82.0332 287.452L81.0949 287.106L80.1566 286.761C75.5797 299.18 80.7392 313.015 92.5243 319.625L93.0134 318.752ZM81.0949 287.106L81.6206 286.256C70.3215 279.273 60.6394 271.533 53.8003 260.292L52.946 260.812L52.0917 261.332C59.1659 272.959 69.15 280.9 80.5692 287.957L81.0949 287.106ZM52.946 260.812L53.8229 260.331C48.2391 250.146 47.2775 240.25 46.2214 228.757L45.2256 228.849L44.2298 228.94C45.2827 240.399 46.2593 250.695 52.0691 261.293L52.946 260.812ZM45.2256 228.849L46.2214 228.757L44.9449 214.865L43.9491 214.956L42.9533 215.048L44.2298 228.94L45.2256 228.849ZM43.9491 214.956L44.9414 214.832C44.0162 207.435 41.6916 200.62 37.6943 194.322L36.85 194.858L36.0058 195.394C39.8332 201.424 42.0655 207.954 42.9569 215.08L43.9491 214.956ZM36.85 194.858L37.6943 194.322L31.025 183.815L30.1807 184.351L29.3364 184.887L36.0058 195.394L36.85 194.858ZM30.1807 184.351L31.025 183.815C25.6928 175.414 22.2847 164.273 22.7828 154.292L21.784 154.242L20.7853 154.192C20.2638 164.643 23.8154 176.189 29.3364 184.887L30.1807 184.351ZM21.784 154.242L22.7837 154.27C22.9823 147.011 24.0258 139.992 25.0953 132.766L24.1061 132.62L23.1168 132.473C22.0503 139.679 20.9869 146.817 20.7844 154.215L21.784 154.242ZM24.1061 132.62L24.2197 131.626C20.4529 131.195 17.0427 130.199 13.8277 128.484L13.3572 129.367L12.8866 130.249C16.3481 132.095 20.0053 133.157 23.9924 133.613L24.1061 132.62ZM13.3572 129.367L12.4122 129.04C6.84543 145.122 3.76088 161.603 3.15694 178.548L4.1563 178.584L5.15567 178.62C5.75249 161.874 8.80005 145.589 14.3022 129.694L13.3572 129.367ZM4.1563 178.584L3.15647 178.566L2.89289 193.246L3.89273 193.263L4.89257 193.281L5.15614 178.602L4.1563 178.584ZM3.89273 193.263L2.89298 193.286C3.20326 207.037 4.84396 220.429 7.84261 233.845L8.81854 233.627L9.79446 233.409C6.82433 220.12 5.19976 206.859 4.89247 193.241L3.89273 193.263ZM8.81854 233.627L7.84261 233.845C11.2236 248.973 16.4646 265.805 23.3235 279.673L24.2199 279.229L25.1162 278.786C18.3502 265.106 13.1534 248.438 9.79446 233.409L8.81854 233.627ZM24.2199 279.229L23.3235 279.673L31.4762 296.156L32.3725 295.712L33.2689 295.269L25.1162 278.786L24.2199 279.229ZM32.3725 295.712L31.4887 296.18L39.0399 310.448L39.9237 309.981L40.8076 309.513L33.2564 295.244L32.3725 295.712ZM39.9237 309.981L39.0485 310.464L51.7232 333.395L52.5984 332.912L53.4736 332.428L40.799 309.497L39.9237 309.981ZM52.5984 332.912L51.6957 333.342L59.6474 350.029L60.5502 349.599L61.4529 349.169L53.5012 332.481L52.5984 332.912ZM60.5502 349.599L59.635 350.002C63.5211 358.823 66.0011 368.008 67.3409 377.493L68.331 377.353L69.3212 377.213C67.9584 367.565 65.4325 358.201 61.4653 349.196L60.5502 349.599ZM68.331 377.353L68.4025 378.351C70.257 378.218 71.8668 378.444 73.625 378.921L73.8872 377.956L74.1493 376.991C72.2267 376.469 70.3872 376.203 68.2596 376.356L68.331 377.353ZM73.8872 377.956L74.8394 378.262L89.8555 331.455L88.9033 331.15L87.9511 330.844L72.935 377.651L73.8872 377.956ZM88.9033 331.15L89.8525 331.464L93.9626 319.067L93.0134 318.752L92.0643 318.438L87.9541 330.835L88.9033 331.15ZM313.512 198.416L314.339 198.978L347.37 150.371L346.543 149.809L345.716 149.247L312.685 197.854L313.512 198.416ZM346.543 149.809L347.278 149.13C346.31 148.082 345.81 147.255 345.311 145.952L344.377 146.31L343.443 146.668C344.03 148.198 344.662 149.245 345.808 150.487L346.543 149.809ZM344.377 146.31L344.234 145.32L281.35 154.39L281.493 155.38L281.636 156.37L344.52 147.3L344.377 146.31ZM281.493 155.38L280.497 155.47L285.646 212.357L286.641 212.267L287.637 212.177L282.489 155.29L281.493 155.38ZM286.641 212.267L286.713 213.264C291.898 212.891 296.855 214.214 301.431 216.604L301.894 215.718L302.357 214.832C297.524 212.307 292.198 210.864 286.57 211.269L286.641 212.267ZM301.894 215.718L302.724 216.275L314.342 198.974L313.512 198.416L312.682 197.859L301.064 215.161L301.894 215.718ZM261.688 336.249L261.004 336.978C268.174 343.7 271.647 354.068 272.878 363.807L273.87 363.682L274.862 363.556C273.604 353.606 270.03 342.698 262.372 335.519L261.688 336.249ZM273.87 363.682L272.878 363.808L273.864 371.541L274.856 371.415L275.848 371.288L274.862 363.555L273.87 363.682ZM274.856 371.415L273.864 371.539C274.57 377.167 276.1 382.555 278.748 387.657L279.635 387.197L280.523 386.736C277.998 381.872 276.529 376.716 275.848 371.29L274.856 371.415ZM279.635 387.197L279.939 388.149C285.051 386.518 290.199 386.558 295.189 387.971L295.462 387.009L295.734 386.047C290.392 384.534 284.842 384.485 279.331 386.244L279.635 387.197ZM295.462 387.009L296.437 387.23L313.301 312.709L312.326 312.489L311.35 312.268L294.487 386.788L295.462 387.009ZM312.326 312.489L313.301 312.711L337.29 207.539L336.315 207.317L335.34 207.095L311.351 312.266L312.326 312.489ZM336.315 207.317L337.29 207.541L344.246 177.276L343.271 177.052L342.296 176.828L335.341 207.093L336.315 207.317ZM343.271 177.052L344.245 177.277L349.98 152.46L349.005 152.235L348.031 152.01L342.297 176.827L343.271 177.052ZM349.005 152.235L349.98 152.46C350.049 152.161 350.019 151.814 349.969 151.574C349.942 151.446 349.892 151.259 349.79 151.079C349.719 150.953 349.427 150.488 348.818 150.481L348.807 151.481L348.796 152.481C348.541 152.478 348.346 152.372 348.23 152.275C348.123 152.187 348.068 152.098 348.047 152.061C348.007 151.989 348.004 151.951 348.011 151.984C348.016 152.005 348.019 152.035 348.02 152.062C348.021 152.1 348.016 152.077 348.031 152.01L349.005 152.235ZM348.807 151.481L348.818 150.481L348.196 150.474L348.185 151.474L348.175 152.474L348.797 152.481L348.807 151.481ZM348.185 151.474L347.358 150.913L319.387 192.133L320.214 192.695L321.042 193.256L349.013 152.036L348.185 151.474ZM320.214 192.695L319.386 192.135L302.957 216.43L303.785 216.99L304.614 217.55L321.043 193.255L320.214 192.695ZM303.785 216.99L303.196 217.798C312.672 224.716 316.283 236.9 312.107 247.729L313.04 248.089L313.973 248.449C318.479 236.767 314.574 223.628 304.375 216.182L303.785 216.99ZM313.04 248.089L312.114 247.712C307.659 258.655 296.277 265.345 284.617 263.421L284.454 264.407L284.291 265.394C296.914 267.478 309.175 260.234 313.966 248.466L313.04 248.089ZM284.454 264.407L284.617 263.421C279.858 262.635 275.61 260.79 272.002 257.731L271.355 258.494L270.708 259.257C274.62 262.573 279.212 264.556 284.291 265.394L284.454 264.407ZM271.355 258.494L270.678 257.758L236.856 288.876L237.533 289.612L238.21 290.348L272.032 259.23L271.355 258.494ZM237.533 289.612L236.534 289.566C236.261 295.428 236.83 301.272 238.2 307.078L239.174 306.848L240.147 306.618C238.817 300.986 238.268 295.328 238.532 289.659L237.533 289.612ZM239.174 306.848L238.2 307.078C239.302 311.745 241.229 315.871 244.013 319.725L244.824 319.14L245.634 318.554C242.999 314.906 241.186 311.019 240.147 306.618L239.174 306.848ZM244.824 319.14L244.025 319.742C246.435 322.938 249.026 325.75 251.936 328.479L252.62 327.749L253.304 327.019C250.465 324.358 247.954 321.63 245.622 318.538L244.824 319.14ZM252.62 327.749L251.936 328.479L261.004 336.978L261.688 336.249L262.372 335.519L253.304 327.019L252.62 327.749ZM371.507 321.026L372.442 320.67L370.572 315.756L369.637 316.112L368.703 316.468L370.573 321.382L371.507 321.026ZM369.637 316.112L370.6 315.841C369.811 313.04 370.46 310.336 372.021 307.747L371.165 307.231L370.309 306.714C368.551 309.629 367.695 312.904 368.675 316.383L369.637 316.112ZM371.165 307.231L372.021 307.747L374.527 303.592L373.671 303.076L372.815 302.559L370.309 306.714L371.165 307.231ZM373.671 303.076L374.527 303.592C376.494 300.332 376.252 296.569 374.771 293.265L373.859 293.674L372.946 294.083C374.237 296.963 374.355 300.006 372.815 302.559L373.671 303.076ZM373.859 293.674L374.771 293.265C373.644 290.75 371.919 288.621 370.514 286.529L369.684 287.087L368.854 287.645C370.395 289.939 371.912 291.775 372.946 294.083L373.859 293.674ZM369.684 287.087L370.514 286.529L367.42 281.924L366.59 282.482L365.76 283.04L368.854 287.645L369.684 287.087ZM366.59 282.482L367.471 282.01C365.615 278.547 366.071 274.568 368.757 271.672L368.023 270.992L367.29 270.312C364.009 273.85 363.46 278.759 365.708 282.955L366.59 282.482ZM368.023 270.992L368.757 271.672C370.788 269.482 373.183 267.703 375.828 266.103L375.311 265.248L374.793 264.392C372.047 266.053 369.487 267.943 367.29 270.312L368.023 270.992ZM375.311 265.248L375.828 266.103L384.463 260.881L383.946 260.025L383.428 259.17L374.793 264.392L375.311 265.248ZM383.946 260.025L384.463 260.881C386.606 259.585 388.482 257.863 389.961 255.837L389.153 255.247L388.346 254.658C387.022 256.47 385.343 258.011 383.428 259.17L383.946 260.025ZM389.153 255.247L389.961 255.837C392.002 253.041 392.695 249.584 392.378 246.229L391.383 246.323L390.387 246.417C390.667 249.388 390.044 252.332 388.346 254.658L389.153 255.247ZM391.383 246.323L392.378 246.229C392.08 243.066 391.343 239.95 389.862 237.087L388.974 237.547L388.086 238.006C389.418 240.582 390.106 243.434 390.387 246.417L391.383 246.323ZM388.974 237.547L389.862 237.087L384.176 226.089L383.288 226.549L382.399 227.008L388.086 238.006L388.974 237.547ZM383.288 226.549L384.172 226.083L372.849 204.592L371.964 205.058L371.079 205.524L382.403 227.015L383.288 226.549ZM371.964 205.058L372.855 204.604L361.687 182.715L360.796 183.169L359.905 183.624L371.073 205.513L371.964 205.058ZM360.796 183.169L361.687 182.715C358.717 176.896 356.493 171.034 355.26 164.618L354.278 164.807L353.296 164.996C354.572 171.635 356.871 177.676 359.905 183.624L360.796 183.169ZM354.278 164.807L355.27 164.677L353.664 152.381L352.673 152.51L351.681 152.64L353.286 164.936L354.278 164.807ZM352.673 152.51L353.452 151.884C353.216 151.589 352.893 151.455 352.701 151.391C352.478 151.318 352.24 151.28 352.02 151.268C351.802 151.258 351.552 151.271 351.31 151.333C351.108 151.385 350.699 151.526 350.45 151.935L351.303 152.457L352.156 152.978C352.07 153.119 351.965 153.193 351.91 153.226C351.853 153.259 351.815 153.269 351.811 153.269C351.807 153.271 351.845 153.262 351.919 153.266C351.991 153.27 352.048 153.282 352.075 153.291C352.088 153.295 352.077 153.293 352.052 153.278C352.03 153.265 351.963 153.223 351.893 153.136L352.673 152.51ZM351.303 152.457L350.328 152.233L347.544 164.355L348.519 164.579L349.494 164.803L352.277 152.68L351.303 152.457ZM348.519 164.579L347.545 164.352L342.701 185.165L343.675 185.392L344.649 185.619L349.493 164.806L348.519 164.579ZM343.675 185.392L342.7 185.17L338.117 205.264L339.092 205.486L340.067 205.708L344.65 185.614L343.675 185.392ZM339.092 205.486L338.117 205.264L330.928 236.775L331.903 236.998L332.878 237.22L340.067 205.709L339.092 205.486ZM331.903 236.998L330.928 236.775L316.707 298.919L317.682 299.142L318.657 299.365L332.878 237.221L331.903 236.998ZM317.682 299.142L316.707 298.921L296.612 387.569L297.587 387.79L298.562 388.011L318.657 299.363L317.682 299.142ZM297.587 387.79L297.179 388.703C306.35 392.802 312.305 401.052 312.654 411.276L313.653 411.242L314.653 411.208C314.276 400.172 307.82 391.268 297.995 386.877L297.587 387.79ZM313.653 411.242L313.671 412.242L326.391 412.013L326.373 411.013L326.355 410.013L313.635 410.242L313.653 411.242ZM326.373 411.013L326.391 412.013C332.933 411.895 339.165 410.611 345.101 407.775L344.67 406.873L344.239 405.971C338.594 408.667 332.651 409.9 326.355 410.013L326.373 411.013ZM344.67 406.873L345.095 407.778C351.903 404.579 357.63 399.696 361.649 393.325L360.803 392.791L359.958 392.258C356.155 398.286 350.73 402.92 344.245 405.968L344.67 406.873ZM360.803 392.791L361.649 393.325C365.335 387.482 366.42 380.794 364.972 374.08L363.995 374.291L363.017 374.502C364.359 380.723 363.353 386.874 359.958 392.258L360.803 392.791ZM363.995 374.291L364.948 373.989L362.238 365.434L361.285 365.736L360.331 366.038L363.041 374.593L363.995 374.291ZM361.285 365.736L362.238 365.434C361.182 362.102 360.182 359.048 360.004 355.728L359.005 355.782L358.007 355.835C358.201 359.457 359.294 362.765 360.331 366.038L361.285 365.736ZM359.005 355.782L360.004 355.728C359.656 349.252 363.045 344.904 367.98 340.54L367.318 339.79L366.656 339.041C361.59 343.52 357.609 348.417 358.007 355.835L359.005 355.782ZM367.318 339.79L367.98 340.54C371.216 337.679 373.403 333.863 374.017 329.515L373.027 329.375L372.037 329.236C371.494 333.077 369.562 336.472 366.656 339.041L367.318 339.79ZM373.027 329.375L374.017 329.515C374.469 326.321 373.504 323.461 372.442 320.67L371.507 321.026L370.573 321.382C371.635 324.172 372.41 326.599 372.037 329.236L373.027 329.375ZM226.972 248.415L226.232 249.088C228.499 251.577 230.455 253.93 232.11 256.588L232.959 256.06L233.808 255.531C232.059 252.722 230.01 250.267 227.711 247.741L226.972 248.415ZM232.959 256.06L233.279 257.007L254.039 249.999L253.719 249.052L253.4 248.104L232.639 255.112L232.959 256.06ZM253.719 249.052L254.036 250L263.36 246.893L263.044 245.944L262.728 244.996L253.403 248.103L253.719 249.052ZM263.044 245.944L264.011 245.688C259.956 230.378 269.167 216.209 284.569 213.48L284.395 212.495L284.22 211.51C267.674 214.442 257.721 229.75 262.077 246.2L263.044 245.944ZM284.395 212.495L285.39 212.405L280.259 155.641L279.263 155.731L278.268 155.821L283.399 212.585L284.395 212.495ZM279.263 155.731L279.122 154.741L239.391 160.432L239.533 161.422L239.675 162.412L279.405 156.721L279.263 155.731ZM239.533 161.422L238.548 161.596C240.095 170.331 239.173 179.098 236.117 187.406L237.055 187.751L237.994 188.096C241.164 179.478 242.129 170.353 240.517 161.247L239.533 161.422ZM237.055 187.751L236.12 187.399C233.45 194.485 229.381 200.653 224.073 206.055L224.787 206.756L225.5 207.457C230.989 201.871 235.216 195.469 237.991 188.104L237.055 187.751ZM224.787 206.756L224.105 206.024C219.516 210.297 214.538 213.8 208.847 216.474L209.272 217.379L209.697 218.284C215.598 215.512 220.746 211.885 225.468 207.488L224.787 206.756ZM209.272 217.379L208.286 217.546C209.573 225.154 212.791 234.324 218.108 240.164L218.848 239.491L219.587 238.818C214.634 233.377 211.514 224.636 210.258 217.212L209.272 217.379ZM218.848 239.491L218.108 240.164L226.232 249.088L226.972 248.415L227.711 247.741L219.587 238.818L218.848 239.491ZM210.845 263.444L211.165 264.391L230.984 257.689L230.664 256.742L230.343 255.795L210.525 262.497L210.845 263.444ZM230.664 256.742L231.5 256.194C230.011 253.923 228.363 251.834 226.491 249.838L225.762 250.522L225.032 251.206C226.826 253.119 228.403 255.118 229.827 257.29L230.664 256.742ZM225.762 250.522L226.491 249.838L219.422 242.298L218.692 242.982L217.963 243.666L225.032 251.206L225.762 250.522ZM218.692 242.982L219.437 242.315C213.059 235.193 209.93 227.674 208.045 218.127L207.064 218.321L206.083 218.514C208.018 228.318 211.272 236.196 217.947 243.649L218.692 242.982ZM207.064 218.321L206.709 217.386C196.239 221.367 186.705 222.287 175.571 219.848L175.357 220.825L175.143 221.802C186.682 224.33 196.611 223.366 207.42 219.255L207.064 218.321ZM175.357 220.825L174.36 220.76L173.252 237.777L174.25 237.841L175.248 237.906L176.355 220.89L175.357 220.825ZM174.25 237.841L173.252 237.779L170.832 276.366L171.83 276.429L172.828 276.491L175.248 237.904L174.25 237.841ZM171.83 276.429L172.143 277.378L185.913 272.834L185.6 271.884L185.287 270.934L171.516 275.479L171.83 276.429ZM185.6 271.884L185.917 272.832L211.162 264.392L210.845 263.444L210.528 262.496L185.283 270.936L185.6 271.884ZM237.707 286.381L238.383 287.117L270.4 257.715L269.723 256.978L269.047 256.242L237.03 285.644L237.707 286.381ZM269.723 256.978L270.421 256.261C267.937 253.845 266.063 250.972 264.737 247.724L263.811 248.102L262.885 248.479C264.306 251.962 266.329 255.071 269.026 257.695L269.723 256.978ZM263.811 248.102L263.494 247.153L233.775 257.099L234.092 258.048L234.41 258.996L264.129 249.05L263.811 248.102ZM234.092 258.048L233.197 258.492C235.866 263.872 237.535 269.621 237.246 275.462L238.245 275.512L239.244 275.561C239.555 269.275 237.755 263.181 234.988 257.603L234.092 258.048ZM238.245 275.512L237.246 275.462L236.708 286.331L237.707 286.381L238.706 286.43L239.244 275.561L238.245 275.512ZM269.78 392.866L270.552 392.229L239.405 354.447L238.633 355.083L237.861 355.719L269.008 393.502L269.78 392.866ZM238.633 355.083L239.404 354.446L218.021 328.577L217.25 329.214L216.479 329.851L237.862 355.72L238.633 355.083ZM217.25 329.214L216.655 328.41C210.633 332.866 202.463 331.834 197.679 326.513L196.935 327.181L196.192 327.85C201.649 333.919 210.974 335.102 217.845 330.018L217.25 329.214ZM196.935 327.181L197.679 326.513C192.81 321.098 192.852 313.085 197.707 307.601L196.958 306.938L196.209 306.275C190.697 312.503 190.628 321.662 196.192 327.85L196.935 327.181ZM196.958 306.938L197.707 307.601C202.416 302.281 210.609 301.253 216.795 305.774L217.385 304.967L217.975 304.159C210.966 299.036 201.611 300.173 196.209 306.275L196.958 306.938ZM217.385 304.967L218.059 305.706L235.933 289.418L235.26 288.679L234.586 287.94L216.712 304.228L217.385 304.967ZM235.26 288.679L236.258 288.733L236.92 276.606L235.921 276.551L234.923 276.497L234.261 288.624L235.26 288.679ZM235.921 276.551L236.921 276.564C237.003 270.221 235.845 263.903 232.668 258.296L231.798 258.789L230.928 259.282C233.886 264.502 235 270.448 234.922 276.538L235.921 276.551ZM231.798 258.789L231.48 257.841L203.555 267.211L203.873 268.159L204.192 269.107L232.116 259.737L231.798 258.789ZM203.873 268.159L203.556 267.211L171.297 278.018L171.615 278.966L171.933 279.915L204.191 269.108L203.873 268.159ZM171.615 278.966L170.618 278.889L168.424 306.986L169.421 307.064L170.418 307.142L172.612 279.044L171.615 278.966ZM169.421 307.064L168.425 306.971L165.904 333.917L166.899 334.01L167.895 334.103L170.416 307.157L169.421 307.064ZM166.899 334.01L166.305 334.814C184.148 348.006 202.513 360.237 221.396 371.846L221.92 370.994L222.444 370.142C203.602 358.559 185.284 346.359 167.494 333.206L166.899 334.01ZM221.92 370.994L221.396 371.846L245.696 386.785L246.219 385.933L246.743 385.081L222.444 370.142L221.92 370.994ZM246.219 385.933L245.701 386.788L265.209 398.616L265.727 397.761L266.246 396.906L246.738 385.078L246.219 385.933ZM265.727 397.761L266.571 398.298C267.654 396.594 269.006 395.141 270.507 393.552L269.78 392.866L269.053 392.179C267.566 393.753 266.084 395.336 264.883 397.224L265.727 397.761ZM138.165 312.776L137.57 313.579L164.243 333.351L164.839 332.548L165.434 331.745L138.76 311.973L138.165 312.776ZM164.839 332.548L165.835 332.631L170.241 279.836L169.244 279.752L168.248 279.669L163.842 332.465L164.839 332.548ZM169.244 279.752L168.927 278.804L131.757 291.239L132.074 292.187L132.392 293.135L169.562 280.701L169.244 279.752ZM132.074 292.187L131.085 292.331C131.793 297.199 131.117 301.892 129.161 306.359L130.077 306.761L130.993 307.162C133.095 302.361 133.828 297.291 133.064 292.043L132.074 292.187ZM130.077 306.761L129.48 307.563L137.568 313.578L138.165 312.776L138.762 311.974L130.674 305.958L130.077 306.761ZM272.548 371.81L273.539 371.675L272.012 360.477L271.021 360.612L270.03 360.747L271.557 371.945L272.548 371.81ZM271.021 360.612L272.012 360.477C271.515 356.836 270.233 352.484 268.428 348.427C266.627 344.38 264.269 340.54 261.571 337.983L260.883 338.709L260.195 339.435C262.627 341.74 264.855 345.317 266.601 349.24C268.342 353.153 269.563 357.322 270.03 360.747L271.021 360.612ZM260.883 338.709L261.571 337.983L253.547 330.379L252.859 331.105L252.171 331.831L260.195 339.435L260.883 338.709ZM252.859 331.105L253.565 330.396L247.01 323.868L246.305 324.577L245.599 325.285L252.153 331.813L252.859 331.105ZM246.305 324.577L247.035 323.893C238.952 315.266 235.948 303.92 236.15 291.82L235.15 291.803L234.15 291.786C233.943 304.226 237.03 316.14 245.575 325.26L246.305 324.577ZM235.15 291.803L234.473 291.067L218.534 305.72L219.211 306.457L219.887 307.193L235.827 292.539L235.15 291.803ZM219.211 306.457L218.443 307.098C221.086 310.258 222.401 313.775 222.4 317.208C222.399 320.636 221.086 324.054 218.34 327.03L219.075 327.708L219.81 328.386C222.871 325.068 224.399 321.176 224.4 317.209C224.402 313.248 222.882 309.287 219.978 305.815L219.211 306.457ZM219.075 327.708L218.304 328.345L250.191 366.951L250.962 366.314L251.733 365.677L219.846 327.071L219.075 327.708ZM250.962 366.314L250.189 366.949L270.85 392.069L271.622 391.434L272.394 390.798L251.734 365.679L250.962 366.314ZM271.622 391.434L272.234 392.225C273.907 390.93 275.592 389.894 277.764 388.894L277.346 387.986L276.928 387.078C274.62 388.14 272.805 389.254 271.01 390.643L271.622 391.434ZM277.346 387.986L278.239 387.535C275.74 382.59 274.317 377.377 273.539 371.675L272.548 371.81L271.557 371.945C272.358 377.813 273.833 383.251 276.454 388.437L277.346 387.986ZM135.101 410.482L134.568 411.328C138.021 413.501 142.03 413.129 145.044 410.675L144.413 409.9L143.782 409.124C141.408 411.056 138.334 411.335 135.633 409.636L135.101 410.482ZM144.413 409.9L145.044 410.675C147.854 408.389 150.036 405.026 151.769 401.467C153.508 397.897 154.833 394.048 155.889 390.725L154.936 390.422L153.983 390.119C152.934 393.419 151.644 397.155 149.971 400.591C148.292 404.038 146.265 407.103 143.782 409.124L144.413 409.9ZM154.936 390.422L155.896 390.703C157.746 384.396 159.367 378.251 160.314 371.637L159.324 371.496L158.335 371.354C157.407 377.825 155.818 383.862 153.977 390.14L154.936 390.422ZM159.324 371.496L160.314 371.637L165.524 335.286L164.534 335.144L163.544 335.003L158.335 371.354L159.324 371.496ZM164.534 335.144L165.129 334.341L129.641 308.016L129.045 308.819L128.45 309.622L163.938 335.948L164.534 335.144ZM129.045 308.819L128.188 308.303C124.169 314.984 117.564 319.557 110.022 320.822L110.187 321.808L110.352 322.794C118.489 321.43 125.591 316.5 129.902 309.334L129.045 308.819ZM110.187 321.808L109.196 321.941L111.376 338.203L112.367 338.07L113.358 337.938L111.178 321.675L110.187 321.808ZM112.367 338.07L111.376 338.201C113.147 351.697 115.583 364.845 118.716 378.083L119.689 377.853L120.662 377.622C117.544 364.448 115.12 351.367 113.359 337.94L112.367 338.07ZM119.689 377.853L118.723 378.11C120.383 384.341 122.164 390.275 124.613 396.229L125.537 395.849L126.462 395.468C124.061 389.63 122.306 383.791 120.656 377.595L119.689 377.853ZM125.537 395.849L124.613 396.229C125.636 398.717 126.949 401.737 128.572 404.494C130.185 407.232 132.165 409.816 134.568 411.328L135.101 410.482L135.633 409.636C133.637 408.379 131.854 406.126 130.295 403.479C128.747 400.85 127.478 397.939 126.462 395.468L125.537 395.849Z" fill="white" mask="url(#path-2-inside-1_8464_31598)"/>
<path d="M242.311 31.6445C243.909 38.5457 248.068 44.2428 253.993 48.1006L229.955 90.3252L211.74 122.292C204.727 118.874 197.2 116.869 189.246 116.661C168.325 116.115 148.933 128.031 139.726 146.724L52.6914 113.094C54.3642 106.553 53.354 99.8987 50.3945 93.9082L63.5518 81.708C66.8681 78.6337 70.1672 75.9103 73.9414 73.4951L73.9492 73.4902C83.6749 67.0166 94.0074 65.6787 105.639 65.751C109.569 65.7754 113.289 65.7359 117.265 65.2559C128.368 63.9151 138.809 59.9466 148.063 53.8213L153.653 50.1221L165.903 42.1387C173.086 37.4578 182.624 35.3796 191.299 35.0117C196.386 34.796 201.254 35.0492 206.362 35.3789V35.3799C212.177 35.7693 217.732 35.9591 223.576 35.7383L223.592 35.7373L223.608 35.7363C230.049 35.0825 236.17 33.6653 242.311 31.6445Z" stroke="white"/>
<path d="M351.947 152.768C352.045 152.772 352.137 152.789 352.21 152.811L353.785 164.872L353.787 164.887L353.79 164.902C355.056 171.486 357.335 177.482 360.354 183.397L371.521 205.286L371.524 205.292L382.846 226.778V226.779L388.532 237.777C389.901 240.425 390.602 243.343 390.888 246.371C391.177 249.438 390.536 252.51 388.752 254.953C387.39 256.819 385.662 258.406 383.689 259.599L375.055 264.82C372.333 266.466 369.815 268.329 367.659 270.653C364.527 274.031 364.001 278.707 366.151 282.719L366.163 282.741L366.178 282.762L369.271 287.366C370.779 289.61 372.347 291.519 373.405 293.879C374.744 296.864 374.892 300.088 373.246 302.818L370.739 306.974C369.031 309.806 368.227 312.939 369.159 316.248L369.165 316.27L369.173 316.29L371.043 321.204C372.105 323.994 372.927 326.529 372.535 329.306C371.975 333.274 369.978 336.775 366.989 339.417C361.956 343.867 358.123 348.626 358.509 355.809C358.699 359.355 359.769 362.6 360.811 365.888L363.513 374.419C364.874 380.756 363.847 387.033 360.383 392.525C356.526 398.639 351.025 403.336 344.46 406.421L344.457 406.423C338.74 409.154 332.724 410.399 326.366 410.514L314.134 410.733C313.599 400.267 307.472 391.811 298.167 387.504L318.172 299.253L332.393 237.11V237.109L339.582 205.598L344.165 185.506L349.009 164.693V164.691L351.745 152.776C351.799 152.768 351.868 152.764 351.947 152.768Z" stroke="white"/>
<path d="M138.412 149.745C128.496 173.494 137.161 200.638 158.897 214.279C163.17 216.961 167.566 219.131 172.676 220.568L171.185 241.77L171.184 241.772L168.972 276.875L155.092 281.496H155.091L131.988 289.233C128.836 276.974 117.41 268.762 104.682 269.411L92.1396 197.364C98.0363 195.573 102.143 190.8 102.985 184.783L102.984 184.782C103.986 178.417 101.027 172.242 95.7139 168.97C90.3394 165.66 83.5205 165.843 78.2041 169.727L44.4414 126.567C47.4921 123.708 50.0189 120.345 51.6738 116.246L138.412 149.745Z" stroke="white"/>
<path d="M348.513 151.978C348.515 152 348.521 152.023 348.521 152.045L348.52 152.123L342.785 176.939V176.94L335.829 207.205V207.206L311.839 312.378V312.379L295.091 386.389C290.126 385.074 284.994 385.05 279.892 386.594C277.453 381.78 276.023 376.691 275.353 371.353V371.352L274.367 363.619C273.116 353.722 269.567 342.949 262.031 335.885L252.963 327.385C250.108 324.708 247.579 321.962 245.229 318.847H245.23C242.558 315.147 240.716 311.201 239.661 306.733C238.337 301.125 237.782 295.488 238.026 289.839L271.372 259.158C275.134 262.241 279.521 264.1 284.374 264.901C296.756 266.945 308.797 259.839 313.504 248.277H313.505L313.508 248.27C317.874 236.949 314.197 224.236 304.467 216.875L320.629 192.975L348.448 151.978H348.513Z" stroke="white"/>
<path d="M13.6436 130.077C16.7407 131.649 20.0037 132.598 23.5381 133.053C22.4971 140.087 21.4837 147.031 21.2861 154.218C20.7705 164.551 24.287 175.995 29.7607 184.619L36.4297 195.126C40.2967 201.218 42.551 207.815 43.4521 215.003H43.4531L44.7295 228.895C45.7832 240.362 46.7564 250.558 52.5098 261.053L52.5146 261.062L52.5205 261.072C59.4651 272.486 69.2458 280.333 80.4902 287.317C76.2894 299.275 81.2119 312.482 92.4121 318.982L88.4307 330.993L88.4287 330.997L73.5566 377.355C71.9839 376.961 70.4604 376.756 68.7598 376.829C67.3881 367.383 64.8943 358.215 61.0098 349.397L61.0068 349.391L61.0029 349.385L53.0518 332.697L53.0381 332.67L40.3633 309.739L32.8164 295.479L24.6699 279.008C17.8807 265.281 12.6731 248.572 9.30859 233.519C6.42441 220.614 4.80518 207.735 4.42676 194.531L4.39453 193.253L4.6582 178.603C5.24997 161.999 8.24387 145.846 13.6436 130.077Z" stroke="white"/>
<path d="M75.7402 171.928C70.6271 177.936 70.5853 186.686 75.6621 192.65C78.958 196.522 83.7938 198.373 88.9688 197.991L101.478 269.729C92.7447 271.409 86.1742 276.072 81.9072 284.118C73.9749 279.549 66.8119 273.782 60.7861 266.895C50.5679 255.215 49.4201 243.441 48.0234 228.567L46.6533 213.979L46.6523 213.967L46.6504 213.955L46.4551 212.671C45.4193 206.274 43.4665 200.218 39.9854 194.695L33.7324 184.775C28.492 176.462 25.0666 167.458 24.582 157.598C24.6047 153.066 24.7807 148.797 25.3633 144.329L26.8223 133.135C31.273 133.294 35.4578 132.335 39.2373 130.072L41.8076 128.532L75.7402 171.928Z" stroke="white"/>
<path d="M170.408 12.1104C183.979 10.5526 197.561 10.5991 211.207 11.6807L211.213 11.6816C222.271 12.449 232.95 13.8205 243.729 16.083C241.966 20.0311 241.418 24.1162 241.801 28.3037C235.965 30.3861 230.138 31.707 223.98 32.4219C216.837 32.7676 209.941 32.4514 202.795 31.8467C195.091 31.1947 187.76 31.6354 180.162 33.0273C172.171 34.4914 165.42 38.2184 159 42.4277C152.555 46.6541 146.493 51.3276 139.756 54.8174C129.143 60.3149 117.648 62.7997 105.552 62.5303C94.4055 62.2819 83.1454 63.8411 73.7432 69.6455C69.0272 72.5587 64.8293 75.8627 60.8291 79.7031L48.5781 91.0615C45.881 87.3086 42.5679 84.4547 38.4785 82.4473C40.8952 79.1772 43.4557 76.0937 46.1934 73.0498L47.4365 71.6836L47.4414 71.6787C50.4784 68.2809 53.4563 65.213 56.8096 62.1084L56.8115 62.1064C63.9959 55.372 71.5356 49.3014 79.9385 44.1514C85.5358 40.7209 91.2567 37.9542 97.1289 34.9023C120.036 22.9978 144.699 15.0614 170.408 12.1104Z" stroke="white"/>
<path d="M231.561 259.395C234.42 264.618 235.496 270.516 235.421 276.524L234.771 288.446L217.345 304.325C210.581 299.628 201.726 300.796 196.583 306.606C191.235 312.649 191.173 321.521 196.562 327.516C201.75 333.285 210.541 334.496 217.159 329.892L238.246 355.402V355.401L269.113 392.845C267.841 394.195 266.611 395.541 265.572 397.084L246.478 385.506L222.181 370.568C203.409 359.028 185.154 346.875 167.422 333.775L169.917 307.111L169.918 307.104L172.086 279.336L204.031 268.634L231.561 259.395Z" stroke="white"/>
<path d="M283.856 212.087C268.02 215.135 258.504 229.775 262.446 245.616L253.562 248.576L253.561 248.577L233.172 255.459C231.493 252.826 229.54 250.491 227.343 248.077L219.219 239.153C214.258 233.704 211.134 225.054 209.831 217.664C215.535 214.938 220.533 211.401 225.129 207.121L225.145 207.105C230.588 201.565 234.776 195.222 237.524 187.927L237.526 187.923C240.609 179.543 241.584 170.687 240.112 161.843L278.813 156.3L283.856 212.087Z" stroke="white"/>
<path d="M256.82 49.6494C260.77 51.551 264.94 52.3741 269.252 52.2314L275.789 123.882V123.883L278.523 153.08L239.562 158.63C236.378 143.64 227.587 131.882 214.653 123.947L226.28 103.442L226.281 103.443L246.182 68.5244L246.183 68.5225L256.82 49.6494Z" stroke="white"/>
<path d="M278.704 50.207C282.267 59.6411 287.918 67.8308 295.353 74.5654C299.372 78.2062 303.631 80.9837 307.739 83.9062C311.858 86.8366 315.852 89.9298 319.431 94.2363C322.258 97.6387 324.631 101.238 326.418 105.253L331.321 116.267C333.502 121.166 335.659 125.883 338.39 130.525L338.399 130.541C340.255 133.454 342.271 136.062 344.684 138.567C343.911 140.081 343.444 141.746 343.455 143.589L303.917 149.328L281.742 152.512L272.45 51.9854L278.704 50.207Z" stroke="white"/>
<path d="M163.996 335.368L158.83 371.424C157.898 377.927 156.302 383.988 154.46 390.27C153.409 393.575 152.111 397.34 150.421 400.81C148.729 404.285 146.663 407.424 144.098 409.512C141.564 411.574 138.256 411.876 135.368 410.059C133.27 408.738 131.438 406.402 129.865 403.732C128.298 401.072 127.019 398.133 126.001 395.658C123.59 389.796 121.828 383.937 120.177 377.737C117.055 364.547 114.627 351.449 112.863 338.005V338.004L110.745 322.214C118.357 320.798 125.009 316.196 129.185 309.543L163.996 335.368Z" stroke="white"/>
<path d="M344.063 146.861C344.54 148.018 345.067 148.884 345.913 149.85L313.102 198.136L313.1 198.138L301.729 215.073C297.209 212.782 292.283 211.464 287.099 211.738L282.036 155.808L344.063 146.861Z" stroke="white"/>
<path d="M307.56 46.0322C316.698 53.5895 324.596 62.302 331.066 72.2422V72.2432C336.084 80.1168 340.148 88.2425 343.336 97.0059C347.731 109.087 349.729 121.309 350.563 134.016C349.133 134.422 348.068 134.961 346.858 135.941C344.01 132.975 341.662 129.687 339.686 126.046L334.368 114.731L327.746 100.579L327.74 100.565L327.732 100.552C323.617 92.9945 317.906 86.8627 310.84 81.9922L298.342 72.7344C290.854 66.3194 285.352 58.0889 281.719 48.8799C286.948 45.7621 290.909 41.3032 293.248 35.5771L307.56 46.0322Z" stroke="white"/>
<path d="M206.692 218.993C208.628 228.465 211.852 236.091 218.322 243.315L218.33 243.323L225.399 250.863C227.063 252.638 228.541 254.487 229.886 256.477L210.688 262.97L185.445 271.408L172.377 275.721L174.752 237.872L174.751 237.871L175.82 221.432C186.821 223.742 196.359 222.83 206.692 218.993Z" stroke="white"/>
<path d="M234.644 292.949C234.644 304.881 237.777 316.202 245.943 324.918L245.949 324.925L245.955 324.931L252.51 331.459L252.519 331.468L260.542 339.071C263.04 341.439 265.301 345.083 267.061 349.037C268.817 352.986 270.055 357.201 270.529 360.68L272.056 371.877C272.827 377.53 274.229 382.763 276.678 387.751C274.783 388.656 273.226 389.607 271.707 390.745L251.352 365.996L251.351 365.995L219.738 327.722C222.524 324.562 223.902 320.913 223.903 317.209C223.905 313.518 222.539 309.808 219.898 306.505L234.644 292.949Z" stroke="white"/>
<path d="M164.416 331.613L138.464 312.376H138.465L130.692 306.596C132.583 302.114 133.263 297.404 132.627 292.531L168.684 280.469L164.416 331.613Z" stroke="white"/>
<path d="M263.531 248.723C264.848 251.809 266.654 254.581 269.002 256.963L238.268 285.188L238.746 275.536C239.042 269.552 237.389 263.726 234.79 258.341L263.531 248.723Z" stroke="white"/>
</svg>
