<svg width="48" height="48" viewBox="0 0 48 48" fill="none" xmlns="http://www.w3.org/2000/svg">
<path opacity="0.5" d="M47.5852 29.2023C43.9798 27.7746 42.6789 26.4008 42.6789 23.9987C42.6789 21.5967 43.9798 20.2228 47.5857 18.7951C47.8753 18.6799 48.0583 18.3455 47.9831 18.0431C47.383 15.6181 46.4252 13.3355 45.1686 11.2529C45.0075 10.9862 44.6411 10.8785 44.3547 11.0022C40.7967 12.5414 38.906 12.4897 37.2084 10.7916C35.5102 9.09349 35.4584 7.20286 36.9972 3.64508C37.1204 3.35869 37.0126 2.99283 36.7454 2.83177C34.6632 1.57473 32.3805 0.616884 29.9559 0.0168978C29.6535 -0.0583004 29.3185 0.125162 29.2039 0.414755C27.7756 4.01947 26.4022 5.32024 24 5.32024C21.5978 5.32024 20.2239 4.01947 18.7966 0.414755C18.682 0.125162 18.3476 -0.0583004 18.0446 0.0168978C15.62 0.616884 13.3367 1.57473 11.2535 2.83177C10.9868 2.99283 10.8791 3.35869 11.0028 3.64508C12.5421 7.20286 12.4903 9.09349 10.7916 10.7916C9.09396 12.4897 7.20324 12.5414 3.64527 11.0022C3.3594 10.8785 2.99245 10.9862 2.83191 11.2529C1.57535 13.3355 0.616918 15.6181 0.0169006 18.0421C-0.0583016 18.3445 0.12517 18.6799 0.414245 18.7951C4.02021 20.2228 5.32158 21.5967 5.32158 23.9987C5.32158 26.4008 4.02075 27.7746 0.414779 29.2023C0.125704 29.317 -0.0577683 29.6525 0.0174339 29.9554C0.617451 32.3799 1.57535 34.6625 2.83191 36.7451C2.99352 37.0118 3.3594 37.1195 3.64527 36.9958C7.20324 35.4566 9.09396 35.5083 10.7916 37.2064C12.4903 38.9051 12.5421 40.7951 11.0028 44.354C10.8791 44.6399 10.9863 45.0062 11.2535 45.1673C13.3362 46.4243 15.6189 47.3827 18.0435 47.9832C18.346 48.0579 18.6814 47.8755 18.7961 47.5859C20.2223 43.978 21.5967 42.6767 23.9994 42.6767C26.4022 42.6767 27.7766 43.978 29.2039 47.5854C29.3185 47.875 29.6529 48.0579 29.9554 47.9827C32.3805 47.3822 34.6632 46.4243 36.7465 45.1673C37.0132 45.0062 37.1204 44.6399 36.9966 44.354C35.4574 40.7957 35.5096 38.9051 37.2078 37.207C38.906 35.5083 40.7967 35.4566 44.3542 36.9958C44.6406 37.1195 45.0075 37.0118 45.1681 36.7451C46.4246 34.662 47.382 32.3799 47.982 29.9554C48.0572 29.6525 47.8748 29.317 47.5852 29.2023ZM23.9994 33.8657C18.5502 33.8657 14.1325 29.4477 14.1325 23.9987C14.1325 18.5498 18.5502 14.1318 23.9994 14.1318C29.4487 14.1318 33.8664 18.5498 33.8664 23.9987C33.8664 29.4477 29.4487 33.8657 23.9994 33.8657Z" fill="white"/>
</svg>
